<svg width="138" height="46" viewBox="0 0 138 46" fill="none" xmlns="http://www.w3.org/2000/svg">
<g clip-path="url(#clip0)">
<path d="M127.011 0.0001495H10.9957C10.5728 0.0001495 10.155 0.0001495 9.73319 0.0024495C9.38013 0.0047495 9.02988 0.011431 8.67343 0.0170545C7.89905 0.0261416 7.1265 0.0940772 6.36248 0.220271C5.59953 0.349212 4.86048 0.592303 4.17033 0.941321C3.48102 1.29329 2.85118 1.75064 2.30365 2.29678C1.75326 2.84138 1.29446 3.47087 0.944898 4.16103C0.594374 4.84983 0.35132 5.58793 0.22413 6.34985C0.0957306 7.11081 0.0266377 7.88055 0.0174714 8.65215C0.00676945 9.00474 0.00563929 9.3585 0 9.71114V36.2925C0.00563929 36.6496 0.00676945 36.9955 0.0174714 37.3527C0.0266405 38.1243 0.0957334 38.894 0.22413 39.6549C0.350969 40.4173 0.594037 41.1558 0.944898 41.8449C1.2943 42.5328 1.75316 43.1597 2.30365 43.7013C2.8491 44.2499 3.47935 44.7075 4.17033 45.0568C4.86047 45.4068 5.59944 45.6513 6.36248 45.7822C7.12663 45.9074 7.8991 45.9754 8.67343 45.9855C9.02988 45.9934 9.38013 45.9979 9.73319 45.9979C10.1549 46.0002 10.5728 46.0002 10.9957 46.0002H127.011C127.425 46.0002 127.846 46.0002 128.261 45.9979C128.612 45.9979 128.972 45.9934 129.324 45.9855C130.097 45.9759 130.868 45.9079 131.63 45.7822C132.396 45.6504 133.137 45.4059 133.831 45.0568C134.521 44.7073 135.151 44.2497 135.696 43.7013C136.245 43.1576 136.705 42.5311 137.059 41.8449C137.407 41.1553 137.647 40.4168 137.772 39.6549C137.901 38.8939 137.973 38.1244 137.987 37.3527C137.991 36.9955 137.991 36.6496 137.991 36.2925C138 35.8747 138 35.4593 138 35.0347V10.9667C138 10.5456 138 10.1278 137.991 9.71114C137.991 9.3585 137.991 9.00474 137.987 8.65211C137.973 7.88044 137.901 7.11087 137.772 6.34981C137.647 5.58832 137.406 4.85028 137.059 4.16099C136.347 2.77763 135.218 1.65158 133.831 0.941218C133.137 0.593052 132.396 0.350026 131.63 0.220168C130.868 0.0934177 130.097 0.0254584 129.324 0.0168935C128.972 0.0112815 128.612 0.0045425 128.261 0.0023C127.846 0 127.425 0 127.011 0V0.0001495Z" fill="#A6A6A6"/>
<path d="M9.73985 44.9943C9.38848 44.9943 9.04561 44.9898 8.697 44.982C7.97482 44.9726 7.25434 44.91 6.54145 44.7945C5.87672 44.6803 5.23277 44.4679 4.63085 44.1644C4.03445 43.8633 3.49048 43.4686 3.01979 42.9953C2.54229 42.5276 2.14474 41.9851 1.84291 41.3893C1.53775 40.7897 1.32657 40.147 1.21671 39.4835C1.09807 38.7707 1.03388 38.0498 1.0247 37.3273C1.01738 37.0848 1.00781 36.2772 1.00781 36.2772V9.71158C1.00781 9.71158 1.01801 8.91646 1.02475 8.68286C1.03355 7.96144 1.09736 7.24174 1.21565 6.52998C1.32571 5.86472 1.53706 5.22015 1.84238 4.61856C2.1431 4.02322 2.53844 3.48033 3.01307 3.01092C3.48716 2.53705 4.03287 2.14028 4.63029 1.83508C5.23083 1.53249 5.87355 1.32163 6.53694 1.20955C7.25217 1.0929 7.97516 1.02983 8.69983 1.02088L9.74042 1.00684H128.256L129.309 1.02144C130.027 1.02995 130.744 1.09245 131.452 1.20842C132.122 1.32191 132.772 1.53424 133.379 1.83845C134.576 2.45352 135.55 3.42662 136.164 4.62137C136.465 5.2188 136.673 5.85812 136.781 6.51762C136.901 7.23523 136.968 7.96059 136.982 8.68792C136.985 9.0136 136.985 9.36343 136.985 9.71158C136.994 10.1428 136.994 10.5533 136.994 10.9671V35.0351C136.994 35.4529 136.994 35.8606 136.985 36.2716C136.985 36.6456 136.985 36.9882 136.981 37.3407C136.967 38.0551 136.901 38.7675 136.784 39.4723C136.676 40.1405 136.466 40.7882 136.161 41.3928C135.857 41.982 135.462 42.5198 134.99 42.9863C134.518 43.4622 133.974 43.8592 133.376 44.1622C132.77 44.4681 132.122 44.6812 131.452 44.7945C130.739 44.9106 130.019 44.9733 129.297 44.982C128.959 44.9898 128.605 44.9943 128.262 44.9943L127.012 44.9966L9.73985 44.9943Z" fill="black"/>
<path d="M28.5647 23.3452C28.5771 22.3853 28.8328 21.4442 29.3079 20.6093C29.7831 19.7745 30.4623 19.0731 31.2823 18.5703C30.7614 17.8284 30.0741 17.2178 29.2751 16.7871C28.4761 16.3563 27.5874 16.1173 26.6796 16.089C24.7431 15.8863 22.8657 17.2445 21.8788 17.2445C20.8729 17.2445 19.3535 16.1091 17.7174 16.1427C16.6591 16.1768 15.6277 16.4837 14.7238 17.0334C13.8198 17.5832 13.074 18.3571 12.5591 19.2797C10.3288 23.1304 11.9924 28.7896 14.1289 31.9022C15.1978 33.4264 16.4471 35.1289 18.0817 35.0685C19.6813 35.0024 20.2787 34.0514 22.2096 34.0514C24.1225 34.0514 24.683 35.0685 26.3508 35.0301C28.0673 35.0023 29.1487 33.4992 30.1801 31.9606C30.9482 30.8746 31.5392 29.6743 31.9312 28.4042C30.934 27.9836 30.083 27.2796 29.4844 26.38C28.8857 25.4804 28.5658 24.4249 28.5647 23.3452Z" fill="white"/>
<path d="M25.4159 14.0425C26.3518 12.9222 26.8128 11.4822 26.7012 10.0283C25.2714 10.1781 23.9506 10.8595 23.0021 11.9369C22.5384 12.4632 22.1832 13.0755 21.9569 13.7388C21.7305 14.4021 21.6375 15.1033 21.6832 15.8025C22.3983 15.8098 23.1058 15.6552 23.7524 15.3504C24.399 15.0455 24.9678 14.5984 25.4159 14.0425Z" fill="white"/>
<path d="M48.7848 31.2098H43.3261L42.0152 35.0698H39.7031L44.8735 20.7891H47.2757L52.4461 35.0698H50.0946L48.7848 31.2098ZM43.8915 29.4287H48.2184L46.0853 23.1643H46.0257L43.8915 29.4287Z" fill="white"/>
<path d="M63.6125 29.8642C63.6125 33.0997 61.8759 35.1784 59.2552 35.1784C58.5914 35.2131 57.9311 35.0606 57.3501 34.7384C56.7692 34.4163 56.2909 33.9375 55.9701 33.3568H55.9205V38.5139H53.7773V24.6577H55.8518V26.3895H55.8913C56.2268 25.8116 56.7131 25.3353 57.2986 25.0112C57.884 24.6871 58.5466 24.5273 59.2158 24.5488C61.8657 24.5488 63.6125 26.6377 63.6125 29.8642ZM61.4096 29.8642C61.4096 27.7562 60.3172 26.3704 58.6504 26.3704C57.0129 26.3704 55.9115 27.7854 55.9115 29.8642C55.9115 31.962 57.0129 33.367 58.6504 33.367C60.3172 33.367 61.4096 31.9912 61.4096 29.8642Z" fill="white"/>
<path d="M75.1047 29.8642C75.1047 33.0997 73.3681 35.1784 70.7474 35.1784C70.0835 35.2131 69.4233 35.0606 68.8423 34.7384C68.2613 34.4162 67.7831 33.9374 67.4623 33.3568H67.4127V38.5139H65.2695V24.6577H67.344V26.3895H67.3834C67.7189 25.8116 68.2053 25.3353 68.7907 25.0112C69.3761 24.6871 70.0387 24.5273 70.7079 24.5488C73.3579 24.5488 75.1047 26.6377 75.1047 29.8642ZM72.9018 29.8642C72.9018 27.7562 71.8094 26.3704 70.1426 26.3704C68.5051 26.3704 67.4037 27.7854 67.4037 29.8642C67.4037 31.962 68.5051 33.367 70.1426 33.367C71.8094 33.367 72.9018 31.9912 72.9018 29.8642H72.9018Z" fill="white"/>
<path d="M82.6978 31.0906C82.8566 32.5068 84.2362 33.4366 86.1214 33.4366C87.9279 33.4366 89.2275 32.5068 89.2275 31.2298C89.2275 30.1214 88.4436 29.4577 86.5877 29.0028L84.7317 28.557C82.102 27.9236 80.8812 26.6972 80.8812 24.7072C80.8812 22.2432 83.0345 20.5508 86.0921 20.5508C89.1182 20.5508 91.1927 22.2432 91.2625 24.7072H89.0991C88.9696 23.282 87.7882 22.4218 86.0617 22.4218C84.3352 22.4218 83.1539 23.2922 83.1539 24.5589C83.1539 25.5686 83.9084 26.1627 85.7543 26.6174L87.3321 27.0038C90.2703 27.6967 91.4911 28.8737 91.4911 30.9625C91.4911 33.6342 89.357 35.3076 85.9626 35.3076C82.7867 35.3076 80.6424 33.6735 80.5039 31.0905L82.6978 31.0906Z" fill="white"/>
<path d="M96.1167 22.1934V24.6573H98.1022V26.3498H96.1167V32.0896C96.1167 32.9813 96.5143 33.3969 97.3871 33.3969C97.6228 33.3928 97.8581 33.3763 98.0921 33.3474V35.0297C97.6997 35.1029 97.3008 35.136 96.9017 35.1286C94.7878 35.1286 93.9634 34.3368 93.9634 32.3176V26.3498H92.4453V24.6573H93.9634V22.1934H96.1167Z" fill="white"/>
<path d="M99.2539 29.8638C99.2539 26.5878 101.189 24.5293 104.206 24.5293C107.233 24.5293 109.159 26.5878 109.159 29.8638C109.159 33.1487 107.243 35.1982 104.206 35.1982C101.17 35.1982 99.2539 33.1487 99.2539 29.8638ZM106.975 29.8638C106.975 27.6166 105.942 26.2902 104.206 26.2902C102.469 26.2902 101.438 27.6267 101.438 29.8638C101.438 32.12 102.469 33.4362 104.206 33.4362C105.942 33.4362 106.975 32.12 106.975 29.8638H106.975Z" fill="white"/>
<path d="M110.926 24.6576H112.97V26.4298H113.019C113.158 25.8763 113.483 25.3872 113.94 25.0446C114.398 24.702 114.959 24.5269 115.531 24.5487C115.778 24.5478 116.024 24.5746 116.265 24.6284V26.6274C115.953 26.5324 115.628 26.4888 115.302 26.4983C114.991 26.4857 114.68 26.5404 114.392 26.6588C114.104 26.7771 113.845 26.9562 113.633 27.1838C113.421 27.4113 113.261 27.682 113.163 27.9772C113.066 28.2723 113.034 28.585 113.069 28.8938V35.0694H110.926L110.926 24.6576Z" fill="white"/>
<path d="M126.145 32.011C125.857 33.9011 124.011 35.1982 121.649 35.1982C118.612 35.1982 116.727 33.1689 116.727 29.9132C116.727 26.6474 118.622 24.5293 121.559 24.5293C124.448 24.5293 126.264 26.5081 126.264 29.665V30.3972H118.89V30.5264C118.856 30.9095 118.904 31.2956 119.031 31.6588C119.158 32.022 119.361 32.3541 119.627 32.633C119.893 32.912 120.215 33.1313 120.572 33.2766C120.929 33.4218 121.313 33.4896 121.699 33.4755C122.205 33.5228 122.713 33.4058 123.148 33.142C123.582 32.8781 123.92 32.4815 124.11 32.011L126.145 32.011ZM118.9 28.9036H124.12C124.139 28.559 124.087 28.2142 123.966 27.8909C123.845 27.5675 123.659 27.2724 123.419 27.0243C123.178 26.7762 122.889 26.5803 122.569 26.4489C122.249 26.3176 121.905 26.2536 121.559 26.261C121.21 26.259 120.864 26.3258 120.541 26.4578C120.218 26.5897 119.925 26.7842 119.677 27.0298C119.43 27.2755 119.234 27.5676 119.101 27.8892C118.967 28.2108 118.899 28.5555 118.9 28.9036V28.9036Z" fill="white"/>
<path d="M43.6222 10.041C44.0716 10.0088 44.5224 10.0765 44.9423 10.2392C45.3622 10.4018 45.7407 10.6554 46.0504 10.9815C46.3602 11.3077 46.5935 11.6984 46.7335 12.1253C46.8735 12.5523 46.9167 13.0049 46.8601 13.4506C46.8601 15.6427 45.6719 16.9029 43.6222 16.9029H41.1367V10.041H43.6222ZM42.2055 15.9324H43.5029C43.8239 15.9516 44.1452 15.8991 44.4434 15.7788C44.7415 15.6585 45.009 15.4734 45.2264 15.237C45.4438 15.0006 45.6056 14.7188 45.7 14.4122C45.7944 14.1056 45.819 13.7819 45.7721 13.4645C45.8156 13.1485 45.7885 12.8267 45.6926 12.5224C45.5968 12.218 45.4346 11.9386 45.2177 11.704C45.0008 11.4695 44.7346 11.2857 44.4381 11.1659C44.1417 11.046 43.8223 10.993 43.5029 11.0107H42.2055V15.9324Z" fill="white"/>
<path d="M48.0663 14.3118C48.0336 13.9715 48.0727 13.6282 48.1809 13.3038C48.2891 12.9794 48.4641 12.6812 48.6947 12.4282C48.9253 12.1752 49.2063 11.9731 49.5198 11.8348C49.8333 11.6964 50.1724 11.625 50.5152 11.625C50.858 11.625 51.1971 11.6964 51.5106 11.8348C51.8241 11.9731 52.1051 12.1752 52.3357 12.4282C52.5663 12.6812 52.7413 12.9794 52.8495 13.3038C52.9577 13.6282 52.9968 13.9715 52.9641 14.3118C52.9974 14.6525 52.9588 14.9963 52.8509 15.3212C52.7429 15.6461 52.568 15.9449 52.3374 16.1984C52.1068 16.4519 51.8255 16.6544 51.5117 16.793C51.1979 16.9317 50.8584 17.0033 50.5152 17.0033C50.172 17.0033 49.8325 16.9317 49.5187 16.793C49.2049 16.6544 48.9236 16.4519 48.693 16.1984C48.4624 15.9449 48.2874 15.6461 48.1795 15.3212C48.0716 14.9963 48.033 14.6525 48.0663 14.3118ZM51.91 14.3118C51.91 13.1894 51.4043 12.5329 50.5169 12.5329C49.6261 12.5329 49.1249 13.1894 49.1249 14.3118C49.1249 15.4433 49.6261 16.0947 50.5169 16.0947C51.4043 16.0947 51.91 15.4388 51.91 14.3118H51.91Z" fill="white"/>
<path d="M59.4777 16.903H58.4145L57.3413 13.0891H57.2602L56.1914 16.903H55.1384L53.707 11.7246H54.7465L55.6768 15.676H55.7533L56.821 11.7246H57.8042L58.8718 15.676H58.9529L59.8786 11.7246H60.9034L59.4777 16.903Z" fill="white"/>
<path d="M62.1055 11.7242H63.092V12.5468H63.1686C63.2985 12.2514 63.5176 12.0037 63.7954 11.8383C64.0732 11.6729 64.3958 11.5981 64.7183 11.6242C64.9709 11.6053 65.2246 11.6433 65.4606 11.7354C65.6965 11.8275 65.9087 11.9714 66.0813 12.1563C66.2539 12.3413 66.3826 12.5626 66.4578 12.8039C66.533 13.0452 66.5528 13.3003 66.5157 13.5503V16.9025H65.4908V13.8069C65.4908 12.9747 65.1282 12.5609 64.3703 12.5609C64.1987 12.5529 64.0275 12.582 63.8682 12.6462C63.709 12.7104 63.5656 12.8082 63.4479 12.9328C63.3301 13.0575 63.2407 13.206 63.1859 13.3683C63.1311 13.5306 63.1121 13.7028 63.1303 13.8731V16.9026H62.1055L62.1055 11.7242Z" fill="white"/>
<path d="M68.1484 9.70312H69.1733V16.903H68.1484V9.70312Z" fill="white"/>
<path d="M70.5975 14.3119C70.5649 13.9716 70.6039 13.6282 70.7122 13.3038C70.8204 12.9794 70.9955 12.6812 71.2261 12.4282C71.4567 12.1752 71.7377 11.9731 72.0513 11.8348C72.3648 11.6965 72.7039 11.625 73.0467 11.625C73.3895 11.625 73.7286 11.6965 74.0421 11.8348C74.3557 11.9731 74.6367 12.1752 74.8673 12.4282C75.0979 12.6812 75.273 12.9794 75.3812 13.3038C75.4895 13.6282 75.5285 13.9716 75.4959 14.3119C75.5291 14.6526 75.4905 14.9964 75.3825 15.3213C75.2746 15.6462 75.0996 15.945 74.869 16.1985C74.6383 16.452 74.357 16.6545 74.0432 16.7931C73.7294 16.9317 73.3899 17.0033 73.0467 17.0033C72.7035 17.0033 72.364 16.9317 72.0502 16.7931C71.7364 16.6545 71.4551 16.452 71.2244 16.1985C70.9937 15.945 70.8188 15.6462 70.7108 15.3213C70.6029 14.9964 70.5643 14.6526 70.5975 14.3119ZM74.4412 14.3119C74.4412 13.1895 73.9355 12.533 73.0481 12.533C72.1573 12.533 71.6562 13.1895 71.6562 14.3119C71.6562 15.4434 72.1573 16.0948 73.0481 16.0948C73.9355 16.0948 74.4412 15.4389 74.4412 14.3119H74.4412Z" fill="white"/>
<path d="M76.5742 15.4389C76.5742 14.5067 77.2702 13.9694 78.5056 13.893L79.9123 13.8121V13.3652C79.9123 12.8182 79.5496 12.5094 78.8491 12.5094C78.277 12.5094 77.8806 12.7188 77.7669 13.085H76.7747C76.8794 12.1955 77.7184 11.625 78.8964 11.625C80.1983 11.625 80.9326 12.2713 80.9326 13.3652V16.9033H79.9461V16.1756H79.865C79.7004 16.4366 79.4693 16.6494 79.1952 16.7923C78.9212 16.9351 78.6141 17.0029 78.3052 16.9886C78.0872 17.0112 77.8669 16.9881 77.6584 16.9206C77.4499 16.853 77.258 16.7427 77.0949 16.5967C76.9318 16.4507 76.8012 16.2722 76.7115 16.0728C76.6219 15.8734 76.5751 15.6574 76.5742 15.4389ZM79.9123 14.9964V14.5634L78.6442 14.6443C77.929 14.692 77.6047 14.9346 77.6047 15.3911C77.6047 15.8572 78.0101 16.1284 78.5676 16.1284C78.731 16.1449 78.896 16.1284 79.0528 16.08C79.2097 16.0316 79.3552 15.9523 79.4806 15.8466C79.6061 15.741 79.7089 15.6113 79.7831 15.4653C79.8572 15.3192 79.9012 15.1597 79.9123 14.9964Z" fill="white"/>
<path d="M82.2812 14.3116C82.2812 12.6753 83.1248 11.6387 84.4368 11.6387C84.7613 11.6238 85.0834 11.7013 85.3654 11.8622C85.6474 12.0231 85.8777 12.2607 86.0292 12.5472H86.1058V9.70312H87.1307V16.903H86.1486V16.0848H86.0675C85.9042 16.3694 85.666 16.6041 85.3785 16.7633C85.0911 16.9226 84.7654 17.0004 84.4368 16.9883C83.1158 16.9884 82.2812 15.9518 82.2812 14.3116ZM83.3399 14.3116C83.3399 15.4099 83.8591 16.0708 84.7274 16.0708C85.5912 16.0708 86.125 15.4004 86.125 14.3161C86.125 13.2368 85.5856 12.5568 84.7274 12.5568C83.8647 12.5568 83.3399 13.2222 83.3399 14.3116H83.3399Z" fill="white"/>
<path d="M91.371 14.3118C91.3383 13.9715 91.3773 13.6282 91.4856 13.3038C91.5938 12.9794 91.7688 12.6812 91.9994 12.4282C92.23 12.1752 92.511 11.9731 92.8245 11.8348C93.138 11.6964 93.4771 11.625 93.8199 11.625C94.1627 11.625 94.5017 11.6964 94.8152 11.8348C95.1287 11.9731 95.4098 12.1752 95.6404 12.4282C95.8709 12.6812 96.046 12.9794 96.1542 13.3038C96.2624 13.6282 96.3014 13.9715 96.2688 14.3118C96.3021 14.6525 96.2635 14.9963 96.1556 15.3212C96.0476 15.6461 95.8727 15.9449 95.6421 16.1984C95.4114 16.4519 95.1302 16.6544 94.8164 16.793C94.5025 16.9317 94.1631 17.0033 93.8199 17.0033C93.4767 17.0033 93.1372 16.9317 92.8234 16.793C92.5096 16.6544 92.2283 16.4519 91.9977 16.1984C91.767 15.9449 91.5921 15.6461 91.4842 15.3212C91.3763 14.9963 91.3377 14.6525 91.371 14.3118ZM95.2147 14.3118C95.2147 13.1894 94.709 12.5329 93.8216 12.5329C92.9307 12.5329 92.4296 13.1894 92.4296 14.3118C92.4296 15.4433 92.9308 16.0947 93.8216 16.0947C94.709 16.0947 95.2147 15.4388 95.2147 14.3118Z" fill="white"/>
<path d="M97.6445 11.7242H98.6311V12.5468H98.7077C98.8376 12.2514 99.0567 12.0037 99.3345 11.8383C99.6123 11.6729 99.9349 11.5981 100.257 11.6242C100.51 11.6053 100.764 11.6433 101 11.7354C101.236 11.8275 101.448 11.9714 101.62 12.1563C101.793 12.3413 101.922 12.5626 101.997 12.8039C102.072 13.0452 102.092 13.3003 102.055 13.5503V16.9025H101.03V13.8069C101.03 12.9747 100.667 12.5609 99.9093 12.5609C99.7378 12.5529 99.5665 12.582 99.4073 12.6462C99.2481 12.7104 99.1047 12.8082 98.9869 12.9328C98.8691 13.0575 98.7798 13.206 98.725 13.3683C98.6702 13.5306 98.6512 13.7028 98.6694 13.8731V16.9026H97.6445V11.7242Z" fill="white"/>
<path d="M107.843 10.4355V11.7484H108.968V12.6092H107.843V15.2719C107.843 15.8144 108.067 16.0519 108.577 16.0519C108.707 16.0515 108.838 16.0436 108.968 16.0283V16.8796C108.784 16.9124 108.597 16.9299 108.41 16.9318C107.27 16.9318 106.817 16.532 106.817 15.5336V12.6092H105.992V11.7483H106.817V10.4355H107.843Z" fill="white"/>
<path d="M110.371 9.70312H111.387V12.5568H111.468C111.604 12.2586 111.829 12.0095 112.113 11.8435C112.396 11.6775 112.724 11.6026 113.051 11.6292C113.303 11.6155 113.554 11.6574 113.787 11.7517C114.021 11.8461 114.23 11.9906 114.401 12.175C114.572 12.3594 114.7 12.5791 114.775 12.8184C114.851 13.0578 114.873 13.3109 114.84 13.5597V16.903H113.814V13.8118C113.814 12.9847 113.428 12.5658 112.703 12.5658C112.527 12.5514 112.35 12.5755 112.184 12.6365C112.019 12.6975 111.868 12.7939 111.744 12.919C111.619 13.044 111.523 13.1947 111.463 13.3605C111.403 13.5262 111.38 13.7031 111.396 13.8786V16.903H110.371L110.371 9.70312Z" fill="white"/>
<path d="M120.812 15.5052C120.672 15.9785 120.371 16.3879 119.959 16.6617C119.548 16.9356 119.053 17.0565 118.562 17.0033C118.219 17.0124 117.879 16.947 117.565 16.8119C117.251 16.6767 116.97 16.475 116.742 16.2207C116.513 15.9663 116.343 15.6656 116.244 15.3392C116.144 15.0128 116.116 14.6686 116.163 14.3305C116.117 13.9914 116.145 13.6465 116.245 13.3191C116.345 12.9917 116.514 12.6895 116.741 12.433C116.968 12.1765 117.248 11.9716 117.561 11.8322C117.874 11.6928 118.214 11.6222 118.557 11.6251C120.002 11.6251 120.874 12.6095 120.874 14.2356V14.5922H117.207V14.6495C117.191 14.8395 117.215 15.0308 117.277 15.211C117.339 15.3913 117.439 15.5566 117.569 15.6962C117.699 15.8359 117.857 15.9469 118.033 16.0221C118.209 16.0973 118.398 16.1351 118.59 16.133C118.835 16.1623 119.083 16.1183 119.303 16.0065C119.523 15.8947 119.705 15.7202 119.825 15.5052L120.812 15.5052ZM117.207 13.8364H119.83C119.843 13.6626 119.819 13.488 119.76 13.3239C119.701 13.1597 119.609 13.0097 119.488 12.8834C119.368 12.757 119.222 12.6572 119.061 12.5903C118.9 12.5234 118.726 12.4909 118.551 12.4949C118.374 12.4927 118.198 12.5259 118.034 12.5925C117.87 12.6591 117.721 12.7579 117.595 12.8829C117.47 13.0079 117.371 13.1567 117.304 13.3204C117.238 13.4842 117.204 13.6596 117.207 13.8364H117.207Z" fill="white"/>
</g>
<defs>
<clipPath id="clip0">
<rect width="138" height="46" fill="white"/>
</clipPath>
</defs>
</svg>
