<svg width="181" height="125" viewBox="0 0 181 125" fill="none" xmlns="http://www.w3.org/2000/svg">
<mask id="mask0" mask-type="alpha" maskUnits="userSpaceOnUse" x="0" y="0" width="181" height="125">
<rect width="181" height="125" fill="#FAFAFA"/>
</mask>
<g mask="url(#mask0)">
<circle cx="91.5" cy="63" r="48" fill="#FAE4E6"/>
</g>
<path d="M122.05 37C119.836 37 118 38.8257 118 41.0265V85.8935C118 88.0943 119.836 89.92 122.05 89.92H146.35C148.564 89.92 150.4 88.0943 150.4 85.8935V41.0265C150.4 38.8257 148.564 37 146.35 37H122.05ZM122.05 40.4513H146.35C146.701 40.4513 146.929 40.678 146.929 41.0265V42.7522H121.471V41.0265C121.471 40.678 121.699 40.4513 122.05 40.4513ZM121.471 46.2035H146.929V78.4157H121.471V46.2035ZM121.471 81.867H146.929V85.8935C146.929 86.242 146.701 86.4687 146.35 86.4687H122.05C121.699 86.4687 121.471 86.242 121.471 85.8935V81.867ZM134.2 82.4422C133.241 82.4422 132.464 83.2147 132.464 84.1678C132.464 85.1208 133.241 85.8935 134.2 85.8935C135.159 85.8935 135.936 85.1208 135.936 84.1678C135.936 83.2147 135.159 82.4422 134.2 82.4422Z" fill="#FE3535"/>
<path d="M137.947 67.5849L143.266 62.4972L137.947 56.947" stroke="#FE3535" stroke-width="3.25047" stroke-linecap="round" stroke-linejoin="round"/>
<path d="M131.297 67.5849L125.978 62.4972L131.297 56.947" stroke="#FE3535" stroke-width="3.25047" stroke-linecap="round" stroke-linejoin="round"/>
</svg>
