<svg width="181" height="125" viewBox="0 0 181 125" fill="none" xmlns="http://www.w3.org/2000/svg">
<mask id="mask0" mask-type="alpha" maskUnits="userSpaceOnUse" x="0" y="0" width="181" height="125">
<rect width="181" height="125" fill="#FAFAFA"/>
</mask>
<g mask="url(#mask0)">
<circle cx="91.5" cy="63" r="48" fill="#D7CCEE"/>
</g>
<path d="M158.033 52.6228C157.942 52.4725 157.823 52.3418 157.681 52.2382C157.539 52.1346 157.379 52.0603 157.208 52.0195L155.593 51.638C155.424 51.5972 155.248 51.5904 155.076 51.6178C154.904 51.6452 154.739 51.7063 154.591 51.7977C154.292 51.9846 154.079 52.2807 153.996 52.6228C153.916 52.9674 153.976 53.3297 154.162 53.6306C154.348 53.9314 154.646 54.1464 154.99 54.2287L156.605 54.6102C156.774 54.6509 156.95 54.6578 157.122 54.6304C157.294 54.603 157.459 54.5418 157.607 54.4505C157.756 54.3594 157.885 54.2395 157.988 54.0978C158.09 53.9561 158.162 53.7955 158.202 53.6254C158.243 53.4556 158.25 53.2791 158.221 53.1067C158.192 52.9344 158.128 52.7697 158.033 52.6228Z" fill="#9177C9"/>
<path d="M148.175 43.1825C148.518 43.2612 148.878 43.2006 149.177 43.0139C149.464 42.8289 149.668 42.5393 149.745 42.2066L150.126 40.5919C150.208 40.2673 150.161 39.9236 149.993 39.6337C149.902 39.4847 149.782 39.3554 149.641 39.2533C149.499 39.1513 149.338 39.0785 149.168 39.0392C148.999 38.9965 148.823 38.9886 148.651 39.016C148.478 39.0435 148.313 39.1057 148.166 39.1989C148.017 39.29 147.887 39.4099 147.785 39.5516C147.683 39.6933 147.61 39.8539 147.571 40.024L147.181 41.6388C147.102 41.9821 147.163 42.3426 147.349 42.6413C147.547 42.9188 147.841 43.112 148.175 43.1825Z" fill="#9177C9"/>
<path d="M156.387 44.646C156.295 44.4965 156.175 44.3666 156.033 44.2637C155.891 44.1609 155.73 44.0872 155.559 44.0468C155.388 44.0064 155.211 44.0001 155.038 44.0283C154.865 44.0566 154.699 44.1187 154.55 44.2113L151.188 46.2873C150.888 46.4725 150.674 46.7688 150.593 47.1113C150.512 47.4539 150.569 47.8148 150.753 48.115C150.844 48.2639 150.964 48.3932 151.106 48.4953C151.248 48.5974 151.408 48.6702 151.578 48.7094C151.748 48.7502 151.923 48.757 152.096 48.7296C152.268 48.7022 152.433 48.6411 152.581 48.5497L155.961 46.4736C156.259 46.2871 156.471 45.9901 156.551 45.6477C156.631 45.3052 156.572 44.9451 156.387 44.646Z" fill="#9177C9"/>
<mask id="path-6-outside-1" maskUnits="userSpaceOnUse" x="103" y="39.323" width="49" height="52" fill="black">
<rect fill="white" x="103" y="39.323" width="49" height="52"/>
<path d="M150.502 63.463L147.087 58.0155L149.97 55.4515C150.43 55.033 150.729 54.4666 150.815 53.8508C150.9 53.235 150.768 52.6085 150.44 52.0801L146.945 46.5351C146.608 46.0125 146.099 45.6244 145.505 45.438C144.912 45.2517 144.273 45.2788 143.697 45.5148L140.149 47.0142L136.671 41.5489C136.422 41.1599 136.075 40.8424 135.666 40.6277C135.257 40.4131 134.799 40.3086 134.337 40.3246C133.889 40.3449 133.453 40.4784 133.069 40.7126C132.686 40.9469 132.369 41.2742 132.146 41.6643C132.141 41.6936 132.141 41.7236 132.146 41.753L132.093 41.8417L132.004 41.9659V42.0547L131.818 42.374L131.773 42.4628V42.5426L130.238 45.08L129.742 45.8697C127.08 49.9863 121.704 57.4655 115.546 61.3781L114.26 62.0701L109.913 64.8204C108.956 65.451 108.287 66.4327 108.049 67.553C108.007 67.746 107.977 67.9417 107.961 68.1386L105.246 69.7977C104.65 70.1704 104.226 70.7636 104.066 71.4479C103.911 72.1317 104.032 72.8491 104.403 73.4441L107.686 78.6698C107.928 79.0384 108.259 79.3409 108.648 79.55C109.036 79.759 109.471 79.8682 109.913 79.8675H110.019C110.472 79.8478 110.913 79.7102 111.297 79.4683L112.574 78.6698L121.162 89.4937C121.288 89.6512 121.447 89.7785 121.628 89.8661C121.809 89.9536 122.008 89.9992 122.209 89.9994C122.454 89.9974 122.694 89.9267 122.901 89.7954L132.758 83.718C132.958 83.5964 133.121 83.4241 133.233 83.2186C133.344 83.0132 133.399 82.7819 133.391 82.5484C133.384 82.3149 133.315 82.0874 133.192 81.8892C133.068 81.691 132.894 81.5292 132.687 81.4201L132.057 81.083C131.992 81.0399 131.92 81.007 131.844 80.9854C128.091 79.7522 126.353 77.7116 123.922 74.5088L123.584 74.0652C128.739 70.8535 135.118 69.2387 139.607 68.4491C140.876 68.2273 142.198 68.0233 143.538 67.8724L144.354 67.7837L147.016 67.5619H147.459H147.548H147.885H148.329C148.414 67.5681 148.5 67.5681 148.586 67.5619C149.02 67.4979 149.432 67.3277 149.784 67.0662C150.136 66.8047 150.419 66.4602 150.606 66.0633C150.793 65.6664 150.879 65.2294 150.856 64.7912C150.833 64.353 150.703 63.9272 150.476 63.5517L150.502 63.463ZM144.673 47.9546L148.16 53.4819L145.667 55.6999L141.604 49.2677L144.673 47.9546ZM113.177 75.183L109.895 77.1526L106.648 72.0601L109.975 70.0017C110.188 69.867 110.36 69.6749 110.469 69.4475C110.579 69.2201 110.623 68.9664 110.596 68.7153C110.564 68.5243 110.564 68.3295 110.596 68.1386C110.643 67.9194 110.734 67.712 110.864 67.529C110.993 67.346 111.159 67.1912 111.35 67.0739L114.579 65.0334L115.218 66.0448L119.796 73.2933L116.567 75.3339C116.276 75.5181 115.936 75.6077 115.593 75.5902C115.25 75.5727 114.92 75.4491 114.65 75.2363C114.438 75.0822 114.184 74.9949 113.922 74.9854C113.66 74.9759 113.4 75.0447 113.177 75.183ZM129.147 82.8042L122.511 86.9119L115.635 78.2528H115.848C116.613 78.2254 117.357 77.9958 118.004 77.5874L121.358 75.4936L121.837 76.1146C124.064 79.1134 125.909 81.3314 129.183 82.8042H129.147ZM144.478 67.7748L145.365 67.6861H145.561L146.253 67.624H146.953L144.478 67.7748ZM148.187 64.8471H147.841H147.441H147.344H146.883H146.767H146.102H145.951L145.312 64.9003H145.099L144.212 64.9801H144.088L143.201 65.0689C141.808 65.2374 140.441 65.4326 139.119 65.6633C134.382 66.4973 127.586 68.2273 122.032 71.7141L119.423 67.5885L116.842 63.5872C123.132 59.6391 128.455 52.5592 131.862 47.3158L132.412 46.4286L134.249 43.3588C134.247 43.3293 134.247 43.2997 134.249 43.2701L134.373 43.1814L134.435 43.0661L141.32 53.9078L148.284 64.8293L148.187 64.8471Z"/>
</mask>
<path d="M150.502 63.463L147.087 58.0155L149.97 55.4515C150.43 55.033 150.729 54.4666 150.815 53.8508C150.9 53.235 150.768 52.6085 150.44 52.0801L146.945 46.5351C146.608 46.0125 146.099 45.6244 145.505 45.438C144.912 45.2517 144.273 45.2788 143.697 45.5148L140.149 47.0142L136.671 41.5489C136.422 41.1599 136.075 40.8424 135.666 40.6277C135.257 40.4131 134.799 40.3086 134.337 40.3246C133.889 40.3449 133.453 40.4784 133.069 40.7126C132.686 40.9469 132.369 41.2742 132.146 41.6643C132.141 41.6936 132.141 41.7236 132.146 41.753L132.093 41.8417L132.004 41.9659V42.0547L131.818 42.374L131.773 42.4628V42.5426L130.238 45.08L129.742 45.8697C127.08 49.9863 121.704 57.4655 115.546 61.3781L114.26 62.0701L109.913 64.8204C108.956 65.451 108.287 66.4327 108.049 67.553C108.007 67.746 107.977 67.9417 107.961 68.1386L105.246 69.7977C104.65 70.1704 104.226 70.7636 104.066 71.4479C103.911 72.1317 104.032 72.8491 104.403 73.4441L107.686 78.6698C107.928 79.0384 108.259 79.3409 108.648 79.55C109.036 79.759 109.471 79.8682 109.913 79.8675H110.019C110.472 79.8478 110.913 79.7102 111.297 79.4683L112.574 78.6698L121.162 89.4937C121.288 89.6512 121.447 89.7785 121.628 89.8661C121.809 89.9536 122.008 89.9992 122.209 89.9994C122.454 89.9974 122.694 89.9267 122.901 89.7954L132.758 83.718C132.958 83.5964 133.121 83.4241 133.233 83.2186C133.344 83.0132 133.399 82.7819 133.391 82.5484C133.384 82.3149 133.315 82.0874 133.192 81.8892C133.068 81.691 132.894 81.5292 132.687 81.4201L132.057 81.083C131.992 81.0399 131.92 81.007 131.844 80.9854C128.091 79.7522 126.353 77.7116 123.922 74.5088L123.584 74.0652C128.739 70.8535 135.118 69.2387 139.607 68.4491C140.876 68.2273 142.198 68.0233 143.538 67.8724L144.354 67.7837L147.016 67.5619H147.459H147.548H147.885H148.329C148.414 67.5681 148.5 67.5681 148.586 67.5619C149.02 67.4979 149.432 67.3277 149.784 67.0662C150.136 66.8047 150.419 66.4602 150.606 66.0633C150.793 65.6664 150.879 65.2294 150.856 64.7912C150.833 64.353 150.703 63.9272 150.476 63.5517L150.502 63.463ZM144.673 47.9546L148.16 53.4819L145.667 55.6999L141.604 49.2677L144.673 47.9546ZM113.177 75.183L109.895 77.1526L106.648 72.0601L109.975 70.0017C110.188 69.867 110.36 69.6749 110.469 69.4475C110.579 69.2201 110.623 68.9664 110.596 68.7153C110.564 68.5243 110.564 68.3295 110.596 68.1386C110.643 67.9194 110.734 67.712 110.864 67.529C110.993 67.346 111.159 67.1912 111.35 67.0739L114.579 65.0334L115.218 66.0448L119.796 73.2933L116.567 75.3339C116.276 75.5181 115.936 75.6077 115.593 75.5902C115.25 75.5727 114.92 75.4491 114.65 75.2363C114.438 75.0822 114.184 74.9949 113.922 74.9854C113.66 74.9759 113.4 75.0447 113.177 75.183ZM129.147 82.8042L122.511 86.9119L115.635 78.2528H115.848C116.613 78.2254 117.357 77.9958 118.004 77.5874L121.358 75.4936L121.837 76.1146C124.064 79.1134 125.909 81.3314 129.183 82.8042H129.147ZM144.478 67.7748L145.365 67.6861H145.561L146.253 67.624H146.953L144.478 67.7748ZM148.187 64.8471H147.841H147.441H147.344H146.883H146.767H146.102H145.951L145.312 64.9003H145.099L144.212 64.9801H144.088L143.201 65.0689C141.808 65.2374 140.441 65.4326 139.119 65.6633C134.382 66.4973 127.586 68.2273 122.032 71.7141L119.423 67.5885L116.842 63.5872C123.132 59.6391 128.455 52.5592 131.862 47.3158L132.412 46.4286L134.249 43.3588C134.247 43.3293 134.247 43.2997 134.249 43.2701L134.373 43.1814L134.435 43.0661L141.32 53.9078L148.284 64.8293L148.187 64.8471Z" fill="#9177C9"/>
<path d="M150.502 63.463L147.087 58.0155L149.97 55.4515C150.43 55.033 150.729 54.4666 150.815 53.8508C150.9 53.235 150.768 52.6085 150.44 52.0801L146.945 46.5351C146.608 46.0125 146.099 45.6244 145.505 45.438C144.912 45.2517 144.273 45.2788 143.697 45.5148L140.149 47.0142L136.671 41.5489C136.422 41.1599 136.075 40.8424 135.666 40.6277C135.257 40.4131 134.799 40.3086 134.337 40.3246C133.889 40.3449 133.453 40.4784 133.069 40.7126C132.686 40.9469 132.369 41.2742 132.146 41.6643C132.141 41.6936 132.141 41.7236 132.146 41.753L132.093 41.8417L132.004 41.9659V42.0547L131.818 42.374L131.773 42.4628V42.5426L130.238 45.08L129.742 45.8697C127.08 49.9863 121.704 57.4655 115.546 61.3781L114.26 62.0701L109.913 64.8204C108.956 65.451 108.287 66.4327 108.049 67.553C108.007 67.746 107.977 67.9417 107.961 68.1386L105.246 69.7977C104.65 70.1704 104.226 70.7636 104.066 71.4479C103.911 72.1317 104.032 72.8491 104.403 73.4441L107.686 78.6698C107.928 79.0384 108.259 79.3409 108.648 79.55C109.036 79.759 109.471 79.8682 109.913 79.8675H110.019C110.472 79.8478 110.913 79.7102 111.297 79.4683L112.574 78.6698L121.162 89.4937C121.288 89.6512 121.447 89.7785 121.628 89.8661C121.809 89.9536 122.008 89.9992 122.209 89.9994C122.454 89.9974 122.694 89.9267 122.901 89.7954L132.758 83.718C132.958 83.5964 133.121 83.4241 133.233 83.2186C133.344 83.0132 133.399 82.7819 133.391 82.5484C133.384 82.3149 133.315 82.0874 133.192 81.8892C133.068 81.691 132.894 81.5292 132.687 81.4201L132.057 81.083C131.992 81.0399 131.92 81.007 131.844 80.9854C128.091 79.7522 126.353 77.7116 123.922 74.5088L123.584 74.0652C128.739 70.8535 135.118 69.2387 139.607 68.4491C140.876 68.2273 142.198 68.0233 143.538 67.8724L144.354 67.7837L147.016 67.5619H147.459H147.548H147.885H148.329C148.414 67.5681 148.5 67.5681 148.586 67.5619C149.02 67.4979 149.432 67.3277 149.784 67.0662C150.136 66.8047 150.419 66.4602 150.606 66.0633C150.793 65.6664 150.879 65.2294 150.856 64.7912C150.833 64.353 150.703 63.9272 150.476 63.5517L150.502 63.463ZM144.673 47.9546L148.16 53.4819L145.667 55.6999L141.604 49.2677L144.673 47.9546ZM113.177 75.183L109.895 77.1526L106.648 72.0601L109.975 70.0017C110.188 69.867 110.36 69.6749 110.469 69.4475C110.579 69.2201 110.623 68.9664 110.596 68.7153C110.564 68.5243 110.564 68.3295 110.596 68.1386C110.643 67.9194 110.734 67.712 110.864 67.529C110.993 67.346 111.159 67.1912 111.35 67.0739L114.579 65.0334L115.218 66.0448L119.796 73.2933L116.567 75.3339C116.276 75.5181 115.936 75.6077 115.593 75.5902C115.25 75.5727 114.92 75.4491 114.65 75.2363C114.438 75.0822 114.184 74.9949 113.922 74.9854C113.66 74.9759 113.4 75.0447 113.177 75.183ZM129.147 82.8042L122.511 86.9119L115.635 78.2528H115.848C116.613 78.2254 117.357 77.9958 118.004 77.5874L121.358 75.4936L121.837 76.1146C124.064 79.1134 125.909 81.3314 129.183 82.8042H129.147ZM144.478 67.7748L145.365 67.6861H145.561L146.253 67.624H146.953L144.478 67.7748ZM148.187 64.8471H147.841H147.441H147.344H146.883H146.767H146.102H145.951L145.312 64.9003H145.099L144.212 64.9801H144.088L143.201 65.0689C141.808 65.2374 140.441 65.4326 139.119 65.6633C134.382 66.4973 127.586 68.2273 122.032 71.7141L119.423 67.5885L116.842 63.5872C123.132 59.6391 128.455 52.5592 131.862 47.3158L132.412 46.4286L134.249 43.3588C134.247 43.3293 134.247 43.2997 134.249 43.2701L134.373 43.1814L134.435 43.0661L141.32 53.9078L148.284 64.8293L148.187 64.8471Z" stroke="#9177C9" stroke-width="0.756814" mask="url(#path-6-outside-1)"/>
</svg>
