<svg width="181" height="125" viewBox="0 0 181 125" fill="none" xmlns="http://www.w3.org/2000/svg">
<mask id="mask0" mask-type="alpha" maskUnits="userSpaceOnUse" x="0" y="0" width="181" height="125">
<rect width="181" height="125" fill="#FAFAFA"/>
</mask>
<g mask="url(#mask0)">
<circle cx="91.5" cy="63" r="48" fill="#D7CCEE"/>
</g>
<path d="M159.68 73.7722C159.733 72.8007 159.636 71.8166 159.39 70.8523L162.23 68.2488L160.097 64.7012L156.427 65.9816C155.986 65.5891 154.263 64.5209 153.864 64.347L153.552 60.5075L149.442 60.0127L148.2 63.6954C147.601 63.8064 146.461 64.1905 146.461 64.1905C146.147 64.3125 145.838 64.4516 145.532 64.6084L142.354 62.4136L139.37 65.2821L141.441 68.5847C140.969 69.4472 140.634 70.3726 140.44 71.3301L136.742 72.4466L137.124 76.5682L141 77.0085C141.18 77.4364 141.38 77.8592 141.626 78.2685C141.893 78.7123 142.197 79.1176 142.52 79.5025L141.087 83.0894L144.548 85.3607L147.308 82.6052C148.248 82.8722 149.225 83.0005 150.209 82.9767L152.117 86.3279L156.051 85.0385L155.618 81.1642C156.435 80.5814 157.138 79.893 157.718 79.126L161.526 79.7232L162.971 75.8442L159.68 73.7722ZM155.536 73.662C155.218 76.7382 152.466 78.974 149.39 78.656C146.314 78.3379 144.078 75.5862 144.396 72.5101C144.714 69.4338 147.466 67.1979 150.542 67.516C153.618 67.834 155.854 70.5857 155.536 73.662Z" fill="#9177C9"/>
<path d="M137.767 58.9786L141.767 59.5731L143.249 55.4922L139.78 53.3468C139.827 52.3273 139.718 51.2959 139.451 50.2866L142.408 47.532L140.141 43.8287L136.303 45.2023C135.837 44.7944 134.02 43.6884 133.6 43.5093L133.241 39.4844L128.926 39L127.654 42.8731C127.027 42.9945 125.835 43.4068 125.835 43.4068C125.506 43.5374 125.183 43.686 124.864 43.8529L121.511 41.5774L118.405 44.6111L120.605 48.058C120.118 48.9666 119.774 49.9399 119.579 50.9458L115.709 52.148L116.144 56.4679L120.214 56.8972C120.406 57.3445 120.62 57.7863 120.881 58.2136C121.165 58.6767 121.487 59.0994 121.829 59.5004L120.356 63.2748L124.005 65.628L126.877 62.7148C127.866 62.9869 128.891 63.1133 129.923 63.08L131.953 66.5792L136.068 65.1936L135.581 61.1337C136.433 60.5159 137.165 59.788 137.767 58.9786ZM129.028 58.5555C125.798 58.2476 123.43 55.3802 123.738 52.1508C124.046 48.9215 126.913 46.5533 130.143 46.8611C133.372 47.169 135.74 50.0365 135.432 53.2658C135.124 56.4951 132.257 58.8634 129.028 58.5555Z" fill="#9177C9"/>
<path d="M131.888 75.6874L133.921 73.0946L131.627 70.3985L128.709 71.9907C128.282 71.721 126.679 71.0601 126.318 70.969L125.519 67.7725L121.983 67.9281L121.448 71.2088C120.958 71.386 120.05 71.8691 120.05 71.8691C119.802 72.0156 119.56 72.1763 119.324 72.3512L116.336 70.9425L114.218 73.779L116.426 76.2771C116.149 77.0706 115.995 77.8981 115.964 78.7332L113 80.191L113.897 83.6157L117.229 83.4466C117.44 83.7825 117.669 84.1113 117.933 84.4224C118.22 84.7596 118.534 85.0592 118.859 85.3391L118.151 88.5657L121.388 89.9996L123.333 87.2895C124.163 87.3837 125.005 87.3557 125.832 87.1984L127.91 89.76L131.049 88.1233L130.143 84.9148C130.751 84.309 131.249 83.6301 131.631 82.902L134.928 82.8748L135.606 79.4001L132.54 78.1108C132.449 77.2836 132.231 76.4666 131.888 75.6874ZM124.539 83.6668C121.899 83.8274 119.628 81.8173 119.468 79.1774C119.307 76.5371 121.317 74.2667 123.957 74.1061C126.597 73.9455 128.868 75.9556 129.028 78.5957C129.189 81.2358 127.179 83.5062 124.539 83.6668Z" fill="#9177C9"/>
</svg>
