<svg width="181" height="125" viewBox="0 0 181 125" fill="none" xmlns="http://www.w3.org/2000/svg">
<mask id="mask0" mask-type="alpha" maskUnits="userSpaceOnUse" x="0" y="0" width="181" height="125">
<rect width="181" height="125" fill="#FAFAFA"/>
</mask>
<g mask="url(#mask0)">
<circle cx="91.5" cy="63" r="48" fill="#FAE4E6"/>
</g>
<path d="M122.746 57.6798H122.745H119.536C119.465 56.4402 118.935 55.2685 118.046 54.3949C117.111 53.4757 115.853 52.9597 114.542 52.9577H114.541C114.18 52.9577 113.833 52.8142 113.578 52.5587C113.323 52.3033 113.179 51.9568 113.179 51.5955V50.9303C113.179 50.5681 113.322 50.2206 113.578 49.9638C113.833 49.7072 114.18 49.562 114.542 49.5599H115.428C116.52 49.5599 117.566 49.1263 118.338 48.3545C119.11 47.5827 119.544 46.5359 119.544 45.4444C119.544 44.3529 119.11 43.3061 118.338 42.5343C117.566 41.7625 116.52 41.3289 115.428 41.3289C114.827 41.3289 114.251 41.0902 113.826 40.6653C113.401 40.2404 113.163 39.6642 113.163 39.0633V37.0841V37.0759L113.162 37.0676C113.133 36.7225 112.976 36.4008 112.721 36.1664C112.466 35.9319 112.132 35.8018 111.786 35.8018C111.44 35.8018 111.106 35.9319 110.851 36.1664C110.596 36.4008 110.439 36.7225 110.41 37.0676L110.409 37.0759V37.0841L110.409 39.0469L110.409 39.0472C110.412 40.3732 110.939 41.6442 111.877 42.5818C112.813 43.5177 114.081 44.0452 115.404 44.0494C115.747 44.0759 116.067 44.2304 116.302 44.4823C116.538 44.7359 116.669 45.0694 116.669 45.4157C116.669 45.762 116.538 46.0954 116.302 46.349C116.067 46.6008 115.747 46.7553 115.404 46.7819H114.541L114.541 46.7819C113.45 46.7842 112.405 47.2185 111.633 47.9897C110.862 48.761 110.428 49.8064 110.426 50.8971V50.8975L110.426 51.5627L110.426 51.5631C110.428 52.6538 110.862 53.6992 111.633 54.4704C112.405 55.2417 113.45 55.6759 114.541 55.6782L114.541 55.6782C115.132 55.678 115.699 55.9084 116.122 56.3203C116.496 56.6845 116.732 57.1653 116.792 57.6798L113.589 57.6798L113.588 57.6798C112.055 57.6821 110.586 58.292 109.502 59.376C108.418 60.4599 107.808 61.9293 107.806 63.4622V63.4625V78.2996C107.767 79.6841 108.006 81.0623 108.508 82.3529C109.011 83.6444 109.768 84.8219 110.734 85.8158C111.7 86.8096 112.856 87.5996 114.132 88.1391C115.409 88.6786 116.781 88.9566 118.167 88.9566C119.553 88.9566 120.925 88.6786 122.202 88.1391C123.478 87.5996 124.634 86.8096 125.6 85.8158C126.566 84.8219 127.323 83.6444 127.826 82.3529C128.328 81.0623 128.567 79.684 128.528 78.2995L128.528 63.4625L128.528 63.4622C128.526 61.9293 127.916 60.4599 126.832 59.376C125.748 58.292 124.279 57.6821 122.746 57.6798ZM110.551 65.5966V63.464C110.563 62.6619 110.888 61.896 111.455 61.3287C112.022 60.7614 112.788 60.4373 113.59 60.425H116.79V65.5966H110.551ZM125.758 68.35V78.2959C125.631 80.225 124.776 82.0338 123.365 83.3559C121.953 84.6794 120.09 85.4159 118.155 85.4159C116.219 85.4159 114.356 84.6794 112.944 83.3559C111.533 82.0338 110.678 80.225 110.551 78.2959V68.35H125.758ZM125.783 63.463L125.76 65.5966H119.544V60.425H122.744C123.546 60.4373 124.312 60.7614 124.879 61.3287C125.446 61.8958 125.77 62.6612 125.783 63.463Z" fill="#FE3535" stroke="#FE3535" stroke-width="0.396406"/>
<path d="M143.005 40.8375H132.37C132.059 40.8375 131.76 40.9612 131.54 41.1814C131.32 41.4017 131.196 41.7004 131.196 42.0118V87.2953C131.196 87.6068 131.32 87.9055 131.54 88.1257C131.76 88.3459 132.059 88.4697 132.37 88.4697H143.046C143.201 88.4707 143.355 88.4412 143.498 88.3826C143.642 88.3241 143.772 88.2378 143.882 88.1286C143.992 88.0195 144.079 87.8896 144.139 87.7466C144.198 87.6036 144.229 87.4502 144.229 87.2953V42.0118C144.229 41.8534 144.197 41.6965 144.135 41.5507C144.073 41.405 143.982 41.2732 143.868 41.1635C143.754 41.0538 143.618 40.9683 143.47 40.9123C143.322 40.8563 143.164 40.8308 143.005 40.8375ZM141.831 46.077H137.914C137.751 46.0634 137.587 46.0837 137.432 46.1368C137.277 46.1898 137.135 46.2744 137.015 46.3852C136.894 46.4959 136.798 46.6305 136.732 46.7803C136.667 46.9301 136.633 47.0919 136.633 47.2555C136.633 47.4191 136.667 47.5809 136.732 47.7307C136.798 47.8805 136.894 48.0151 137.015 48.1258C137.135 48.2366 137.277 48.3212 137.432 48.3742C137.587 48.4272 137.751 48.4476 137.914 48.434H141.831V51.8421H139.367C139.204 51.8285 139.04 51.8489 138.885 51.9019C138.731 51.955 138.589 52.0395 138.468 52.1503C138.348 52.2611 138.252 52.3956 138.186 52.5454C138.12 52.6952 138.086 52.857 138.086 53.0206C138.086 53.1842 138.12 53.346 138.186 53.4959C138.252 53.6457 138.348 53.7802 138.468 53.891C138.589 54.0017 138.731 54.0863 138.885 54.1393C139.04 54.1924 139.204 54.2127 139.367 54.1991H141.831V57.6073H137.914C137.602 57.6073 137.304 57.731 137.083 57.9512C136.863 58.1715 136.739 58.4702 136.739 58.7817C136.739 59.0931 136.863 59.3918 137.083 59.6121C137.304 59.8323 137.602 59.956 137.914 59.956H141.831V63.3642H139.367C139.204 63.3506 139.04 63.3709 138.885 63.424C138.731 63.477 138.589 63.5616 138.468 63.6724C138.348 63.7831 138.252 63.9177 138.186 64.0675C138.12 64.2173 138.086 64.3791 138.086 64.5427C138.086 64.7063 138.12 64.8681 138.186 65.0179C138.252 65.1677 138.348 65.3023 138.468 65.413C138.589 65.5238 138.731 65.6084 138.885 65.6614C139.04 65.7144 139.204 65.7348 139.367 65.7212H141.831V69.1293H137.914C137.602 69.1293 137.304 69.2531 137.083 69.4733C136.863 69.6936 136.739 69.9923 136.739 70.3037C136.739 70.6152 136.863 70.9139 137.083 71.1341C137.304 71.3544 137.602 71.4781 137.914 71.4781H141.831V74.9602H139.367C139.204 74.9466 139.04 74.9669 138.885 75.02C138.731 75.073 138.589 75.1576 138.468 75.2683C138.348 75.3791 138.252 75.5136 138.186 75.6634C138.12 75.8133 138.086 75.9751 138.086 76.1387C138.086 76.3023 138.12 76.4641 138.186 76.6139C138.252 76.7637 138.348 76.8982 138.468 77.009C138.589 77.1198 138.731 77.2043 138.885 77.2574C139.04 77.3104 139.204 77.3308 139.367 77.3172H141.831V80.7992H137.914C137.602 80.7992 137.304 80.923 137.083 81.1432C136.863 81.3634 136.739 81.6622 136.739 81.9736C136.739 82.2851 136.863 82.5838 137.083 82.804C137.304 83.0243 137.602 83.148 137.914 83.148H141.831V86.1127H133.545V43.1862H141.831V46.077Z" fill="#FE3535"/>
<path fill-rule="evenodd" clip-rule="evenodd" d="M143.005 40.8374C143.164 40.8307 143.322 40.8562 143.47 40.9122C143.618 40.9683 143.754 41.0537 143.868 41.1634C143.982 41.2732 144.073 41.4049 144.135 41.5507C144.197 41.6965 144.229 41.8533 144.229 42.0118V87.2952C144.229 87.4501 144.198 87.6035 144.139 87.7465C144.079 87.8895 143.992 88.0194 143.882 88.1285C143.772 88.2377 143.642 88.324 143.498 88.3826C143.355 88.4411 143.201 88.4707 143.047 88.4696H132.37C132.059 88.4696 131.76 88.3459 131.54 88.1256C131.32 87.9054 131.196 87.6067 131.196 87.2952V42.0118C131.196 41.7003 131.32 41.4016 131.54 41.1813C131.76 40.9611 132.059 40.8374 132.37 40.8374H143.005ZM143.045 88.866H132.37C131.954 88.866 131.554 88.7005 131.26 88.4059C130.965 88.1113 130.8 87.7118 130.8 87.2952V42.0118C130.8 41.5952 130.965 41.1956 131.26 40.901C131.554 40.6065 131.954 40.441 132.37 40.441H142.998C143.207 40.4334 143.415 40.4675 143.61 40.5414C143.808 40.6164 143.989 40.7307 144.142 40.8774C144.295 41.0242 144.417 41.2004 144.5 41.3954C144.583 41.5904 144.626 41.8002 144.626 42.0121M143.045 88.866C143.252 88.8673 143.457 88.8277 143.648 88.7496C143.84 88.6713 144.015 88.5558 144.162 88.4098C144.309 88.2638 144.425 88.0902 144.505 87.8989C144.585 87.7076 144.626 87.5024 144.626 87.2952V42.0121M137.929 45.6805H141.435V43.5825H133.941V85.7162H141.435V83.5443H137.914C137.497 83.5443 137.098 83.3788 136.803 83.0843C136.508 82.7897 136.343 82.3901 136.343 81.9735C136.343 81.5569 136.508 81.1574 136.803 80.8628C137.098 80.5682 137.497 80.4028 137.914 80.4028H141.435V77.7135H139.383C139.171 77.7288 138.958 77.7012 138.757 77.6323C138.55 77.5615 138.361 77.4486 138.2 77.3007C138.039 77.1528 137.911 76.9731 137.823 76.7731C137.735 76.5731 137.69 76.357 137.69 76.1386C137.69 75.9202 137.735 75.7041 137.823 75.5041C137.911 75.3041 138.039 75.1244 138.2 74.9765C138.361 74.8286 138.55 74.7157 138.757 74.6449C138.958 74.576 139.171 74.5484 139.383 74.5637H141.435V71.8744H137.914C137.497 71.8744 137.098 71.7089 136.803 71.4144C136.508 71.1198 136.343 70.7203 136.343 70.3037C136.343 69.8871 136.508 69.4875 136.803 69.1929C137.098 68.8984 137.497 68.7329 137.914 68.7329H141.435V66.1175H139.383C139.171 66.1328 138.958 66.1052 138.757 66.0363C138.55 65.9655 138.361 65.8526 138.2 65.7047C138.039 65.5568 137.911 65.3772 137.823 65.1771C137.735 64.9771 137.69 64.7611 137.69 64.5426C137.69 64.3242 137.735 64.1081 137.823 63.9081C137.911 63.7081 138.039 63.5284 138.2 63.3805C138.361 63.2327 138.55 63.1197 138.757 63.0489C138.958 62.98 139.171 62.9524 139.383 62.9677H141.435V60.3524H137.914C137.497 60.3524 137.098 60.1869 136.803 59.8923C136.508 59.5977 136.343 59.1982 136.343 58.7816C136.343 58.365 136.508 57.9654 136.803 57.6709C137.098 57.3763 137.497 57.2108 137.914 57.2108H141.435V54.5954H139.383C139.171 54.6108 138.958 54.5832 138.757 54.5143C138.55 54.4434 138.361 54.3305 138.2 54.1826C138.039 54.0347 137.911 53.8551 137.823 53.6551C137.735 53.455 137.69 53.239 137.69 53.0206C137.69 52.8021 137.735 52.5861 137.823 52.386C137.911 52.186 138.039 52.0064 138.2 51.8585C138.361 51.7106 138.55 51.5977 138.757 51.5268C138.958 51.4579 139.171 51.4303 139.383 51.4457H141.435V48.8303H137.929C137.717 48.8456 137.504 48.818 137.303 48.7491C137.097 48.6783 136.907 48.5654 136.746 48.4175C136.585 48.2696 136.457 48.09 136.369 47.8899C136.282 47.6899 136.236 47.4738 136.236 47.2554C136.236 47.037 136.282 46.8209 136.369 46.6209C136.457 46.4209 136.585 46.2412 136.746 46.0933C136.907 45.9455 137.097 45.8325 137.303 45.7617C137.504 45.6928 137.717 45.6652 137.929 45.6805ZM137.914 46.0769C137.751 46.0633 137.587 46.0837 137.432 46.1367C137.277 46.1897 137.135 46.2743 137.015 46.3851C136.894 46.4958 136.798 46.6304 136.732 46.7802C136.667 46.93 136.633 47.0918 136.633 47.2554C136.633 47.419 136.667 47.5808 136.732 47.7306C136.798 47.8804 136.894 48.015 137.015 48.1257C137.135 48.2365 137.277 48.3211 137.432 48.3741C137.587 48.4272 137.751 48.4475 137.914 48.4339H141.831V51.8421H139.367C139.204 51.8284 139.04 51.8488 138.885 51.9018C138.731 51.9549 138.589 52.0395 138.468 52.1502C138.348 52.261 138.252 52.3955 138.186 52.5453C138.12 52.6951 138.086 52.857 138.086 53.0206C138.086 53.1841 138.12 53.346 138.186 53.4958C138.252 53.6456 138.348 53.7801 138.468 53.8909C138.589 54.0016 138.731 54.0862 138.885 54.1393C139.04 54.1923 139.204 54.2127 139.367 54.199H141.831V57.6072H137.914C137.602 57.6072 137.304 57.7309 137.083 57.9512C136.863 58.1714 136.739 58.4701 136.739 58.7816C136.739 59.093 136.863 59.3918 137.083 59.612C137.304 59.8322 137.602 59.956 137.914 59.956H141.831V63.3641H139.367C139.204 63.3505 139.04 63.3709 138.885 63.4239C138.731 63.4769 138.589 63.5615 138.468 63.6723C138.348 63.783 138.252 63.9176 138.186 64.0674C138.12 64.2172 138.086 64.379 138.086 64.5426C138.086 64.7062 138.12 64.868 138.186 65.0178C138.252 65.1677 138.348 65.3022 138.468 65.413C138.589 65.5237 138.731 65.6083 138.885 65.6613C139.04 65.7144 139.204 65.7347 139.367 65.7211H141.831V69.1293H137.914C137.602 69.1293 137.304 69.253 137.083 69.4732C136.863 69.6935 136.739 69.9922 136.739 70.3037C136.739 70.6151 136.863 70.9138 137.083 71.1341C137.304 71.3543 137.602 71.478 137.914 71.478H141.831V74.9601H139.367C139.204 74.9465 139.04 74.9668 138.885 75.0199C138.731 75.0729 138.589 75.1575 138.468 75.2683C138.348 75.379 138.252 75.5136 138.186 75.6634C138.12 75.8132 138.086 75.975 138.086 76.1386C138.086 76.3022 138.12 76.464 138.186 76.6138C138.252 76.7636 138.348 76.8982 138.468 77.0089C138.589 77.1197 138.731 77.2043 138.885 77.2573C139.04 77.3103 139.204 77.3307 139.367 77.3171H141.831V80.7992H137.914C137.602 80.7992 137.304 80.9229 137.083 81.1431C136.863 81.3634 136.739 81.6621 136.739 81.9735C136.739 82.285 136.863 82.5837 137.083 82.804C137.304 83.0242 137.602 83.1479 137.914 83.1479H141.831V86.1126H133.545V43.1861H141.831V46.0769H137.914Z" fill="#FE3535"/>
<path d="M158.287 46.6648L158.288 46.6648L158.286 46.659C158.269 46.5897 158.247 46.5216 158.221 46.455L158.222 46.4549L158.217 46.4445L154.678 38.6764C154.678 38.6763 154.677 38.6761 154.677 38.6759C154.571 38.4398 154.4 38.2385 154.185 38.0954C153.969 37.9521 153.717 37.8729 153.458 37.8669C153.199 37.8608 152.943 37.9283 152.721 38.0613C152.498 38.1944 152.318 38.3877 152.201 38.6188L152.201 38.6189L148.276 46.3797L148.275 46.3796L148.272 46.3872C148.243 46.4508 148.218 46.5161 148.198 46.5828L148.189 46.6115V46.6416V46.6416V46.6416V46.6416V46.6417V46.6417V46.6417V46.6417V46.6417V46.6417V46.6417V46.6417V46.6418V46.6418V46.6418V46.6418V46.6418V46.6419V46.6419V46.6419V46.6419V46.642V46.642V46.642V46.642V46.6421V46.6421V46.6421V46.6422V46.6422V46.6422V46.6423V46.6423V46.6424V46.6424V46.6424V46.6425V46.6425V46.6426V46.6426V46.6427V46.6427V46.6428V46.6428V46.6429V46.6429V46.643V46.643V46.6431V46.6431V46.6432V46.6432V46.6433V46.6433V46.6434V46.6435V46.6435V46.6436V46.6436V46.6437V46.6438V46.6438V46.6439V46.644V46.644V46.6441V46.6442V46.6442V46.6443V46.6444V46.6445V46.6445V46.6446V46.6447V46.6448V46.6448V46.6449V46.645V46.6451V46.6452V46.6452V46.6453V46.6454V46.6455V46.6456V46.6457V46.6457V46.6458V46.6459V46.646V46.6461V46.6462V46.6463V46.6464V46.6465V46.6466V46.6466V46.6467V46.6468V46.6469V46.647V46.6471V46.6472V46.6473V46.6474V46.6475V46.6476V46.6477V46.6478V46.6479V46.648V46.6481V46.6483V46.6484V46.6485V46.6486V46.6487V46.6488V46.6489V46.649V46.6491V46.6492V46.6494V46.6495V46.6496V46.6497V46.6498V46.6499V46.65V46.6502V46.6503V46.6504V46.6505V46.6506V46.6508V46.6509V46.651V46.6511V46.6512V46.6514V46.6515V46.6516V46.6517V46.6519V46.652V46.6521V46.6522V46.6524V46.6525V46.6526V46.6528V46.6529V46.653V46.6532V46.6533V46.6534V46.6536V46.6537V46.6538V46.654V46.6541V46.6542V46.6544V46.6545V46.6546V46.6548V46.6549V46.6551V46.6552V46.6553V46.6555V46.6556V46.6558V46.6559V46.656V46.6562V46.6563V46.6565V46.6566V46.6568V46.6569V46.657V46.6572V46.6573V46.6575V46.6576V46.6578V46.6579V46.6581V46.6582V46.6584V46.6585V46.6587V46.6588V46.659V46.6591V46.6593V46.6594V46.6596V46.6597V46.6599V46.66V46.6602V46.6604V46.6605V46.6607V46.6608V46.661V46.6611V46.6613V46.6614V46.6616V46.6618V46.6619V46.6621V46.6622V46.6624V46.6626V46.6627V46.6629V46.663V46.6632V46.6634V46.6635V46.6637V46.6638V46.664V46.6642V46.6643V46.6645V46.6647V46.6648V46.665V46.6651V46.6653V46.6655V46.6656V46.6658V46.666V46.6661V46.6663V46.6665V46.6666V46.6668V46.667V46.6671V46.6673V46.6675V46.6676V46.6678V46.668V46.6681V46.6683V46.6685V46.6686V46.6688V46.669V46.6692V46.6693V46.6695V46.6697V46.6698V46.67V46.6702V46.6703V46.6705V46.6707V46.6709V46.671V46.6712V46.6714V46.6715V46.6717V46.6719V46.6721V46.6722V46.6724V46.6726V46.6727V46.6729V46.6731V46.6733V46.6734V46.6736V46.6738V46.674V46.6741V46.6743V46.6745V46.6746V46.6748V46.675V46.6752V46.6753V46.6755V46.6757V46.6759V46.676V46.6762V46.6764V46.6765V46.6767V46.6769V46.6771V46.6772V46.6774V46.6776V46.6778V46.6779V46.6781V46.6783V46.6785V46.6786V46.6788V46.679V46.6791V46.6793V46.6795V46.6797V46.6798V46.68V46.6802V46.6804V46.6805V46.6807V46.6809V46.681V46.6812V46.6814V46.6816V46.6817V46.6819V46.6821V46.6822V46.6824V46.6826V46.6828V46.6829V46.6831V46.6833V46.6834V46.6836V46.6838V46.684V46.6841V46.6843V46.6845V46.6846V46.6848V46.685V46.6851V46.6853V46.6855V46.6857V46.6858V46.686V46.6862V46.6863V46.6865V46.6867V46.6868V46.687V46.6872V46.6873V46.6875V46.6877V46.6878V46.688V46.6882V46.6883V46.6885V46.6887V46.6888V46.689V46.6891V46.6893V46.6895V46.6896V46.6898V46.69V46.6901V46.6903V46.6905V46.6906V46.6908V46.6909V46.6911V46.6913V46.6914V46.6916V46.6917V46.6919V46.6921V46.6922V46.6924V46.6925V46.6927V46.6928V46.693V46.6932V46.6933V46.6935V46.6936V46.6938V46.6939V46.6941V46.6942V46.6943C148.177 46.7902 148.177 46.8872 148.189 46.9831V83.5295C148.113 84.2416 148.187 84.9617 148.407 85.6433C148.627 86.3284 148.99 86.9593 149.471 87.495C149.951 88.0307 150.54 88.4591 151.197 88.7524C151.854 89.0457 152.566 89.1973 153.286 89.1973C154.005 89.1973 154.717 89.0457 155.374 88.7524C156.031 88.4591 156.62 88.0307 157.1 87.495C157.581 86.9593 157.944 86.3284 158.164 85.6433C158.384 84.9617 158.458 84.2416 158.382 83.5295V47.003V46.9784L158.376 46.9545C158.356 46.8733 158.329 46.794 158.294 46.7176C158.294 46.6999 158.291 46.6822 158.287 46.6648ZM151.732 45.6304L153.361 42.4188L154.814 45.6304H151.732ZM155.572 83.5402C155.572 84.1628 155.324 84.7599 154.884 85.2002C154.444 85.6405 153.847 85.8878 153.224 85.8878C152.601 85.8878 152.004 85.6405 151.564 85.2002C151.124 84.7599 150.876 84.1628 150.876 83.5402V82.293H155.572V83.5402ZM155.572 79.5232H150.876V48.3756H155.572V79.5232Z" fill="#FE3535" stroke="#FE3535" stroke-width="0.396406"/>
</svg>
