<svg width="82" height="82" viewBox="0 0 82 82" fill="none" xmlns="http://www.w3.org/2000/svg">
<rect x="1" y="1" width="80.0007" height="80" rx="18.5567" fill="white" stroke="#EBEBEB" stroke-width="0.800007"/>
<mask id="mask0" mask-type="alpha" maskUnits="userSpaceOnUse" x="40" y="33" width="11" height="18">
<path fill-rule="evenodd" clip-rule="evenodd" d="M44.0462 37.3609C45.0575 38.9023 45.4116 40.9235 44.9724 42.6349C44.6282 43.9737 43.829 45.028 42.7225 45.6031C42.5536 45.6909 42.3723 45.7694 42.1815 45.837C41.4565 46.2487 41.0076 47.0222 41.0076 47.867C41.0076 49.1492 42.0343 50.1917 43.2953 50.1917C43.6038 50.1917 43.9029 50.1307 44.1845 50.01L44.1848 50.0097C47.6986 48.4699 49.7961 45.1251 49.7961 41.0615C49.7961 38.1859 48.8597 35.9825 47.6326 34.3286L44.0347 37.3448C44.0384 37.3504 44.0425 37.3554 44.0462 37.3609Z" fill="white" stroke="white" stroke-width="0.800007"/>
</mask>
<g mask="url(#mask0)">
<path fill-rule="evenodd" clip-rule="evenodd" d="M37.2104 53.9997H53.5951V30.519H37.2104V53.9997Z" fill="#FF6F27" stroke="#DCDCDC" stroke-width="0.800007"/>
</g>
<mask id="mask1" mask-type="alpha" maskUnits="userSpaceOnUse" x="27" y="28" width="22" height="10">
<path fill-rule="evenodd" clip-rule="evenodd" d="M47.0699 33.6332C45.9127 32.3024 44.6002 31.3934 43.5876 30.821C41.6188 29.7088 39.253 29.1921 36.8342 29.3512C34.0336 29.5337 31.7505 30.7075 30.6388 31.3908C30.4394 31.5138 30.2447 31.6417 30.0531 31.7719C29.5171 32.1364 29.016 32.5321 28.5441 32.9528C28.214 33.2467 27.9013 33.5555 27.603 33.8759L31.1124 36.9273C31.3043 36.7265 31.5026 36.5321 31.7104 36.348C31.9919 36.0992 32.2876 35.8661 32.5972 35.6504C33.0244 35.3525 33.4738 35.0846 33.9501 34.8576C35.671 34.0374 38.0963 33.7902 39.8702 34.287C41.469 34.7342 42.8657 35.7273 43.847 37.0899C43.9086 37.1751 43.9725 37.2578 44.031 37.3454L47.6292 34.3292C47.4483 34.0854 47.2612 33.8533 47.0699 33.6332Z" fill="white" stroke="white" stroke-width="0.800007"/>
</mask>
<g mask="url(#mask1)">
<path fill-rule="evenodd" clip-rule="evenodd" d="M23.8059 41.1542H51.4281V25.5142H23.8059V41.1542Z" fill="#FF9429" stroke="#DCDCDC" stroke-width="0.800007"/>
</g>
<mask id="mask2" mask-type="alpha" maskUnits="userSpaceOnUse" x="19" y="18" width="37" height="14">
<path fill-rule="evenodd" clip-rule="evenodd" d="M54.0146 26.186C53.3815 25.5008 52.7053 24.8579 51.9857 24.2661C48.3338 21.2642 44.7025 19.7085 40.2095 19.2223C39.4263 19.1375 38.625 19.0942 37.8293 19.0942C32.5567 19.0942 28.4789 20.9189 26.5181 22.0059C25.8135 22.3961 25.1336 22.8176 24.4765 23.2664C23.4665 23.9563 22.5173 24.7162 21.6286 25.5332C21.0433 26.0711 20.4856 26.6356 19.9565 27.2236L23.4409 30.2533C23.8666 29.7873 24.3121 29.3393 24.7818 28.9146C25.4841 28.2793 26.2329 27.6905 27.027 27.1539C28.512 26.1512 30.1473 25.3226 31.9197 24.7048C33.6461 24.103 35.6222 23.7852 37.6346 23.7852C39.722 23.7852 41.7944 24.1197 43.627 24.7531C46.4357 25.7236 48.9098 27.3836 50.8489 29.5822C51.1078 29.8761 51.3586 30.1777 51.5984 30.491C51.6791 30.5963 51.7548 30.7019 51.8325 30.8074L55.3816 27.8321C54.952 27.2602 54.4979 26.7088 54.0146 26.186Z" fill="white" stroke="white" stroke-width="0.800007"/>
</mask>
<g mask="url(#mask2)">
<path fill-rule="evenodd" clip-rule="evenodd" d="M16.1594 34.6155H59.1806V15.2847H16.1594V34.6155Z" fill="#A7D64C" stroke="#DCDCDC" stroke-width="0.800007"/>
</g>
<mask id="mask3" mask-type="alpha" maskUnits="userSpaceOnUse" x="23" y="33" width="9" height="23">
<path fill-rule="evenodd" clip-rule="evenodd" d="M30.7132 51.2576C30.2289 50.5958 29.8222 49.9143 29.5012 49.2409C28.5703 47.2854 28.165 45.3178 28.295 43.3921C28.4641 40.9072 29.4892 38.6285 31.1131 36.9277L27.6036 33.8762C25.7316 35.8874 24.4933 38.4059 23.9757 41.3221C22.8822 47.4884 25.5492 52.087 27.2362 54.279C27.332 54.404 27.4311 54.5231 27.529 54.6446C27.5932 54.7241 27.6598 54.7997 27.7247 54.8777L31.2522 51.9385C31.064 51.7143 30.8818 51.4878 30.7132 51.2576Z" fill="white" stroke="white" stroke-width="0.800007"/>
</mask>
<g mask="url(#mask3)">
<path fill-rule="evenodd" clip-rule="evenodd" d="M19.9231 58.6865H35.0511V30.0674H19.9231V58.6865Z" fill="#FFB600" stroke="#DCDCDC" stroke-width="0.800007"/>
</g>
<mask id="mask4" mask-type="alpha" maskUnits="userSpaceOnUse" x="19" y="10" width="52" height="62">
<path fill-rule="evenodd" clip-rule="evenodd" d="M60.9708 18.7213C58.1107 15.6788 54.725 13.3067 50.6471 11.4667C50.4958 11.3982 50.3436 11.3269 50.1909 11.2553C49.5748 10.9667 48.992 10.694 48.4137 10.5921C47.5976 10.4481 46.8292 10.6805 46.3263 11.2179C45.902 11.6717 45.6874 12.3131 45.7232 13.0245C45.7911 14.3924 46.6437 14.8003 48.1448 15.4043C48.3518 15.4876 48.5614 15.5714 48.7683 15.6605C50.1568 16.2563 51.4974 17.0059 53.1129 18.0908C54.8448 19.2526 56.4245 20.5961 57.8322 22.0878C60.9739 25.4165 63.257 29.4891 64.4366 33.9658C65.4706 37.8896 65.6517 42.4546 64.9226 46.1774C64.2234 49.7466 62.8731 52.9914 60.91 55.8219C60.3794 56.5874 59.811 57.3139 59.2131 58.0062C55.3482 62.481 50.1361 65.4001 44.2797 66.3112C43.0293 66.5056 41.7746 66.6041 40.5521 66.6041C32.2158 66.6043 26.8647 62.2012 24.4164 59.5762C24.2115 59.3566 23.9602 59.0744 23.6786 58.7383C23.6011 58.6457 23.5213 58.5489 23.4396 58.4479L19.9041 61.394C20.1034 61.6327 20.3039 61.8712 20.5124 62.1057C20.8504 62.486 21.197 62.8619 21.56 63.2306C26.4448 68.1948 32.3448 70.8274 39.5985 71.2794L41.8727 71.278C49.0961 70.756 54.7244 68.3985 60.1174 63.6362C61.0441 62.8179 61.9072 61.9526 62.7073 61.0423C66.1306 57.1484 68.3923 52.4219 69.4451 46.9455C71.4635 36.4466 67.2377 27.8692 65.8947 25.4905C64.447 22.9252 62.8172 20.6852 60.9708 18.7213Z" fill="white" stroke="white" stroke-width="0.800007"/>
</mask>
<g mask="url(#mask4)">
<path fill-rule="evenodd" clip-rule="evenodd" d="M16.1069 75.0874H73.781V6.74072H16.1069V75.0874Z" fill="#0AD3E8" stroke="#DCDCDC" stroke-width="0.800007"/>
</g>
<mask id="mask5" mask-type="alpha" maskUnits="userSpaceOnUse" x="13" y="26" width="12" height="36">
<path fill-rule="evenodd" clip-rule="evenodd" d="M18.7802 38.9624C19.625 35.6231 21.2308 32.6693 23.4387 30.2531L19.9544 27.2231C17.7243 29.7016 16.0112 32.6061 14.943 35.7942C14.158 38.1385 13.744 40.4204 13.641 42.9764L13.6167 43.5955H13.5942V45.0339C13.9854 51.405 16.0603 56.788 19.904 61.3941L23.4395 58.4479C20.915 55.3341 16.4405 48.21 18.7802 38.9624Z" fill="white" stroke="white" stroke-width="0.800007"/>
</mask>
<g mask="url(#mask5)">
<path fill-rule="evenodd" clip-rule="evenodd" d="M9.79761 65.2031H27.239V23.4146H9.79761V65.2031Z" fill="#49D6BB" stroke="#DCDCDC" stroke-width="0.800007"/>
</g>
<mask id="mask6" mask-type="alpha" maskUnits="userSpaceOnUse" x="27" y="51" width="28" height="11">
<path fill-rule="evenodd" clip-rule="evenodd" d="M50.8764 51.9624C48.7421 54.1428 46.0274 55.6112 43.1026 56.1345C42.2912 56.2796 41.4772 56.3536 40.6856 56.3536C36.4551 56.3542 33.2873 54.3605 31.2535 51.9377L27.7258 54.877C30.3192 57.9955 33.5186 59.9016 37.4876 60.6796C38.5975 60.8976 39.7213 61.008 40.8289 61.008C45.1563 61.008 48.6675 59.3234 50.8506 57.9107C51.9608 57.1921 52.982 56.3733 53.9095 55.4701L50.8764 51.9624Z" fill="white" stroke="white" stroke-width="0.800007"/>
</mask>
<g mask="url(#mask6)">
<path fill-rule="evenodd" clip-rule="evenodd" d="M23.928 64.8158H57.7078V48.1279H23.928V64.8158Z" fill="#FFDA00" stroke="#DCDCDC" stroke-width="0.800007"/>
</g>
<mask id="mask7" mask-type="alpha" maskUnits="userSpaceOnUse" x="50" y="27" width="11" height="30">
<path fill-rule="evenodd" clip-rule="evenodd" d="M58.7396 34.3346C57.9682 31.9498 56.8279 29.7588 55.3798 27.8323L51.8304 30.8079C54.0273 33.7898 55.1355 36.9099 55.3051 40.5953C55.534 45.6019 53.1906 49.2449 51.7733 50.9709C51.6817 51.0823 51.5872 51.19 51.4927 51.2985C51.2938 51.5274 51.0866 51.7473 50.8757 51.9626L53.9088 55.4703C54.2839 55.1053 54.6453 54.7281 54.9883 54.3358C56.4367 52.6812 57.5973 50.7908 58.4199 48.7178C59.3704 46.3242 59.8519 43.9606 59.8519 41.6913C59.8519 39.0555 59.4878 36.6495 58.7396 34.3346Z" fill="white" stroke="white" stroke-width="0.800007"/>
</mask>
<g mask="url(#mask7)">
<path fill-rule="evenodd" clip-rule="evenodd" d="M47.0793 59.2791H63.6516V24.0234H47.0793V59.2791Z" fill="#D5E03F" stroke="#DCDCDC" stroke-width="0.800007"/>
</g>
</svg>
