<svg width="118" height="56" viewBox="0 0 118 56" fill="none" xmlns="http://www.w3.org/2000/svg">
<path d="M51.4466 21.0933H50.1562C49.9979 21.0933 49.8964 21.0709 49.8517 21.0262C49.8104 20.9849 49.7898 20.8851 49.7898 20.7268V20.2674C49.7898 20.1057 49.8104 20.0042 49.8517 19.9629C49.893 19.9216 49.9945 19.901 50.1562 19.901H52.6441C52.792 19.901 52.8832 19.9147 52.9176 19.9423C52.983 19.9939 53.0157 20.0988 53.0157 20.2571C53.0157 20.9006 52.8918 21.4787 52.6441 21.9914C52.3757 22.5523 51.9886 22.9962 51.4827 23.3231C50.9494 23.6672 50.3145 23.8392 49.5781 23.8392C48.3738 23.8392 47.4155 23.4142 46.7032 22.5643C46.1492 21.9002 45.8722 21.1071 45.8722 20.1849C45.8722 18.9943 46.2971 18.0428 47.1471 17.3306C47.8318 16.7593 48.6542 16.4737 49.6143 16.4737C50.4711 16.4737 51.2161 16.7198 51.8492 17.2118C52.0385 17.3598 52.2019 17.5164 52.3395 17.6815C52.4806 17.8467 52.5512 17.9689 52.5512 18.048C52.5512 18.1031 52.5374 18.1461 52.5099 18.177C52.4823 18.208 52.4152 18.251 52.3086 18.3061L51.7408 18.6158C51.6204 18.6811 51.5412 18.7138 51.5034 18.7138C51.4586 18.7138 51.4225 18.7001 51.395 18.6725C51.3675 18.645 51.2883 18.5504 51.1576 18.3887C51.013 18.1994 50.7911 18.0428 50.4917 17.919C50.1958 17.7916 49.8999 17.728 49.6039 17.728C48.9261 17.728 48.3652 17.9706 47.9213 18.4558C47.4981 18.9134 47.2864 19.4898 47.2864 20.1849C47.2864 20.935 47.5428 21.5406 48.0555 22.0017C48.4856 22.3905 49.0001 22.585 49.5988 22.585C50.287 22.585 50.8117 22.3338 51.173 21.8314C51.321 21.6284 51.4122 21.3823 51.4466 21.0933ZM56.4636 18.9513C57.2894 18.9513 57.9484 19.2111 58.4404 19.7307C58.8602 20.1745 59.0701 20.7268 59.0701 21.3875C59.0701 22.1445 58.8017 22.7553 58.2649 23.2198C57.7901 23.6259 57.1793 23.8289 56.4326 23.8289C55.9543 23.8289 55.5035 23.7222 55.0803 23.5089C54.6605 23.299 54.3405 22.9893 54.1203 22.5798C53.931 22.2219 53.8364 21.8125 53.8364 21.3514C53.8364 20.6012 54.1151 19.9973 54.6725 19.5397C54.9409 19.3195 55.2678 19.1594 55.6532 19.0597C55.9319 18.9874 56.2021 18.9513 56.4636 18.9513ZM56.4533 20.1074C56.0954 20.1074 55.7909 20.233 55.5397 20.4842C55.2885 20.7389 55.1629 21.0468 55.1629 21.4081C55.1629 21.7488 55.2885 22.0447 55.5397 22.2959C55.7909 22.5471 56.0954 22.6727 56.4533 22.6727C56.8111 22.6727 57.1157 22.5471 57.3668 22.2959C57.618 22.0482 57.7436 21.7471 57.7436 21.3927C57.7436 21.0313 57.618 20.7285 57.3668 20.4842C57.1088 20.233 56.8042 20.1074 56.4533 20.1074ZM62.4303 18.9513C63.2561 18.9513 63.9151 19.2111 64.4071 19.7307C64.8269 20.1745 65.0368 20.7268 65.0368 21.3875C65.0368 22.1445 64.7684 22.7553 64.2316 23.2198C63.7568 23.6259 63.146 23.8289 62.3993 23.8289C61.921 23.8289 61.4702 23.7222 61.047 23.5089C60.6272 23.299 60.3072 22.9893 60.087 22.5798C59.8977 22.2219 59.8031 21.8125 59.8031 21.3514C59.8031 20.6012 60.0818 19.9973 60.6392 19.5397C60.9076 19.3195 61.2345 19.1594 61.6199 19.0597C61.8986 18.9874 62.1688 18.9513 62.4303 18.9513ZM62.42 20.1074C62.0621 20.1074 61.7576 20.233 61.5064 20.4842C61.2552 20.7389 61.1296 21.0468 61.1296 21.4081C61.1296 21.7488 61.2552 22.0447 61.5064 22.2959C61.7576 22.5471 62.0621 22.6727 62.42 22.6727C62.7778 22.6727 63.0823 22.5471 63.3335 22.2959C63.5847 22.0482 63.7103 21.7471 63.7103 21.3927C63.7103 21.0313 63.5847 20.7285 63.3335 20.4842C63.0755 20.233 62.7709 20.1074 62.42 20.1074ZM69.5015 23.0598C69.3123 23.28 69.1402 23.44 68.9854 23.5398C68.6791 23.7325 68.335 23.8289 67.9531 23.8289C67.2786 23.8289 66.7264 23.5691 66.2962 23.0495C65.9487 22.6331 65.7749 22.0998 65.7749 21.4494C65.7749 20.6683 66.0106 20.0472 66.4821 19.5861C66.9122 19.1629 67.4232 18.9513 68.015 18.9513C68.3316 18.9513 68.6034 19.0098 68.8305 19.1268C69.0611 19.2403 69.2847 19.4296 69.5015 19.6945V19.4674C69.5015 19.3057 69.5222 19.2042 69.5635 19.1629C69.6048 19.1216 69.7046 19.1009 69.8628 19.1009H70.4203C70.5786 19.1009 70.6784 19.1216 70.7196 19.1629C70.7609 19.2042 70.7816 19.3057 70.7816 19.4674V23.5089C70.7816 24.111 70.7196 24.5498 70.5958 24.8251C70.3928 25.2861 70.0624 25.632 69.6048 25.8625C69.2331 26.0483 68.8116 26.1412 68.3402 26.1412C67.5866 26.1412 66.9827 25.9176 66.5285 25.4702C66.1466 25.0917 65.9556 24.7442 65.9556 24.4276C65.9556 24.3485 65.9814 24.2934 66.033 24.2624C66.0846 24.2349 66.1792 24.2212 66.3169 24.2212H66.9776C67.1049 24.2212 67.1875 24.228 67.2253 24.2418C67.2666 24.259 67.301 24.3003 67.3285 24.3657C67.4249 24.5687 67.4989 24.6995 67.5505 24.758C67.6227 24.844 67.7363 24.9145 67.8911 24.9696C68.046 25.0281 68.2026 25.0573 68.3608 25.0573C68.7084 25.0573 68.994 24.9438 69.2177 24.7167C69.4069 24.5205 69.5015 24.2005 69.5015 23.7566V23.0598ZM68.3815 20.1074C68.0271 20.1074 67.726 20.233 67.4782 20.4842C67.227 20.732 67.1014 21.0331 67.1014 21.3875C67.1014 21.7419 67.227 22.0447 67.4782 22.2959C67.726 22.5471 68.0253 22.6727 68.3763 22.6727C68.7342 22.6727 69.037 22.5471 69.2847 22.2959C69.5325 22.0413 69.6564 21.7333 69.6564 21.372C69.6564 21.0245 69.5325 20.7285 69.2847 20.4842C69.0301 20.233 68.729 20.1074 68.3815 20.1074ZM73.3469 16.1228V23.3127C73.3469 23.4745 73.3262 23.576 73.2849 23.6173C73.2436 23.6586 73.1421 23.6792 72.9804 23.6792H72.4281C72.2698 23.6792 72.17 23.6586 72.1287 23.6173C72.0874 23.576 72.0668 23.4745 72.0668 23.3127V16.1228C72.0668 15.961 72.0874 15.8595 72.1287 15.8182C72.17 15.7769 72.2698 15.7563 72.4281 15.7563H72.9804C73.1421 15.7563 73.2436 15.7769 73.2849 15.8182C73.3262 15.8595 73.3469 15.961 73.3469 16.1228ZM75.6386 21.5991C75.6523 21.9879 75.7521 22.2873 75.9379 22.4972C76.1375 22.7174 76.4128 22.8276 76.7638 22.8276C77.1973 22.8276 77.5328 22.6589 77.7703 22.3217C77.815 22.2598 77.8718 22.2288 77.9406 22.2288C77.9509 22.2288 78.0128 22.2374 78.1264 22.2546L78.5909 22.332C78.7183 22.3527 78.8043 22.3785 78.849 22.4095C78.8937 22.4404 78.9161 22.4921 78.9161 22.5643C78.9161 22.6297 78.88 22.7209 78.8077 22.8379C78.7355 22.9549 78.6494 23.0615 78.5496 23.1579C78.092 23.6052 77.5019 23.8289 76.7792 23.8289C76.325 23.8289 75.907 23.7325 75.525 23.5398C75.0674 23.3093 74.7387 22.9618 74.5392 22.4972C74.3981 22.1703 74.3275 21.8039 74.3275 21.3978C74.3275 20.923 74.4308 20.486 74.6372 20.0868C74.8368 19.6945 75.1327 19.4038 75.525 19.2145C75.8829 19.039 76.282 18.9513 76.7225 18.9513C77.3969 18.9513 77.944 19.1422 78.3638 19.5242C78.5772 19.7203 78.7475 19.9784 78.8748 20.2984C79.0021 20.6184 79.0658 20.947 79.0658 21.2843C79.0658 21.4185 79.0434 21.5045 78.9987 21.5423C78.9574 21.5802 78.8576 21.5991 78.6993 21.5991H75.6386ZM77.8477 20.7836C77.7961 20.5531 77.7152 20.3724 77.6051 20.2416C77.3952 19.9904 77.1113 19.8648 76.7534 19.8648C76.4747 19.8648 76.2407 19.9457 76.0515 20.1074C75.8657 20.2692 75.7435 20.4946 75.685 20.7836H77.8477ZM84.2686 21.0675V23.3179C84.2686 23.4762 84.2479 23.576 84.2067 23.6173C84.1654 23.6586 84.0656 23.6792 83.9073 23.6792H83.2621C83.1004 23.6792 82.9989 23.6586 82.9576 23.6173C82.9163 23.576 82.8956 23.4762 82.8956 23.3179V17.0002C82.8956 16.8385 82.9163 16.737 82.9576 16.6957C82.9989 16.6544 83.1004 16.6338 83.2621 16.6338H84.9499C85.4076 16.6338 85.7757 16.675 86.0545 16.7576C86.3366 16.8368 86.5878 16.9744 86.808 17.1705C87.2898 17.5972 87.5307 18.1633 87.5307 18.8687C87.5307 19.5087 87.3397 20.0335 86.9577 20.4429C86.5689 20.8593 85.9702 21.0675 85.1615 21.0675H84.2686ZM84.2686 19.8752H84.8312C85.688 19.8752 86.1164 19.538 86.1164 18.8635C86.1164 18.4988 85.9977 18.2287 85.7603 18.0532C85.5572 17.9018 85.2183 17.8261 84.7434 17.8261H84.2686V19.8752ZM89.6365 16.1228V23.3127C89.6365 23.4745 89.6159 23.576 89.5746 23.6173C89.5333 23.6586 89.4318 23.6792 89.2701 23.6792H88.7178C88.5595 23.6792 88.4597 23.6586 88.4184 23.6173C88.3771 23.576 88.3565 23.4745 88.3565 23.3127V16.1228C88.3565 15.961 88.3771 15.8595 88.4184 15.8182C88.4597 15.7769 88.5595 15.7563 88.7178 15.7563H89.2701C89.4318 15.7563 89.5333 15.7769 89.5746 15.8182C89.6159 15.8595 89.6365 15.961 89.6365 16.1228ZM94.3645 23.0805C93.9722 23.5794 93.4733 23.8289 92.8676 23.8289C92.2001 23.8289 91.6444 23.5742 91.2005 23.065C90.8116 22.6211 90.6172 22.0585 90.6172 21.3772C90.6172 20.6098 90.8684 19.9956 91.3708 19.5345C91.8009 19.1457 92.2913 18.9513 92.8418 18.9513C93.4371 18.9513 93.9447 19.1973 94.3645 19.6894V19.4674C94.3645 19.3091 94.3868 19.2076 94.4316 19.1629C94.4729 19.1216 94.5727 19.1009 94.7309 19.1009H95.2832C95.445 19.1009 95.5465 19.1216 95.5878 19.1629C95.6291 19.2042 95.6497 19.3057 95.6497 19.4674V23.3127C95.6497 23.4745 95.6291 23.576 95.5878 23.6173C95.5465 23.6586 95.445 23.6792 95.2832 23.6792H94.7309C94.5692 23.6792 94.4677 23.6586 94.4264 23.6173C94.3851 23.576 94.3645 23.4745 94.3645 23.3127V23.0805ZM93.2238 20.1074C92.8694 20.1074 92.5683 20.233 92.3205 20.4842C92.0693 20.732 91.9437 21.0331 91.9437 21.3875C91.9437 21.7419 92.0693 22.0447 92.3205 22.2959C92.5683 22.5471 92.8694 22.6727 93.2238 22.6727C93.5782 22.6727 93.8793 22.5471 94.1271 22.2959C94.3748 22.0447 94.4987 21.7368 94.4987 21.372C94.4987 21.0245 94.3748 20.7285 94.1271 20.4842C93.8724 20.233 93.5713 20.1074 93.2238 20.1074ZM98.4111 22.9876L96.5013 19.55C96.436 19.433 96.4033 19.3521 96.4033 19.3074C96.4033 19.2317 96.4291 19.1784 96.4807 19.1474C96.5358 19.1164 96.6321 19.1009 96.7697 19.1009H97.4614C97.6025 19.1009 97.6885 19.1113 97.7195 19.1319C97.7539 19.1491 97.8038 19.2214 97.8691 19.3487L99.1131 21.7075L100.295 19.3539C100.357 19.2265 100.405 19.1526 100.44 19.1319C100.474 19.1113 100.562 19.1009 100.703 19.1009H101.374C101.501 19.1009 101.585 19.1096 101.627 19.1268C101.699 19.1612 101.735 19.2214 101.735 19.3074C101.735 19.3521 101.704 19.433 101.642 19.55L98.313 25.8883C98.2477 26.0122 98.1978 26.0827 98.1633 26.0999C98.1324 26.1206 98.0464 26.1309 97.9053 26.1309H97.2446C97.1173 26.1309 97.033 26.1223 96.9917 26.1051C96.9194 26.0707 96.8833 26.0122 96.8833 25.9296C96.8833 25.8814 96.9143 25.7989 96.9762 25.6819L98.4111 22.9876ZM47.6013 28.8261V30.39H49.6659C49.8276 30.39 49.9291 30.4106 49.9704 30.4519C50.0117 30.4932 50.0324 30.5947 50.0324 30.7565V31.2158C50.0324 31.3776 50.0117 31.4791 49.9704 31.5204C49.9291 31.5617 49.8276 31.5823 49.6659 31.5823H47.6013V33.4869H49.7691C49.9274 33.4869 50.0272 33.5075 50.0685 33.5488C50.1098 33.5901 50.1304 33.6916 50.1304 33.8534V34.3127C50.1304 34.4745 50.1098 34.576 50.0685 34.6173C50.0272 34.6586 49.9274 34.6792 49.7691 34.6792H46.5948C46.4331 34.6792 46.3316 34.6586 46.2903 34.6173C46.249 34.576 46.2283 34.4745 46.2283 34.3127V28.0002C46.2283 27.8385 46.249 27.737 46.2903 27.6957C46.3316 27.6544 46.4331 27.6338 46.5948 27.6338H49.7691C49.924 27.6338 50.0237 27.6561 50.0685 27.7008C50.1098 27.7421 50.1304 27.8419 50.1304 28.0002V28.4596C50.1304 28.6213 50.1098 28.7228 50.0685 28.7641C50.0272 28.8054 49.9274 28.8261 49.7691 28.8261H47.6013ZM54.7706 34.0805C54.3783 34.5794 53.8794 34.8289 53.2738 34.8289C52.6062 34.8289 52.0505 34.5742 51.6066 34.065C51.2178 33.6211 51.0234 33.0585 51.0234 32.3772C51.0234 31.6098 51.2746 30.9956 51.7769 30.5345C52.2036 30.1457 52.694 29.9513 53.248 29.9513C53.8398 29.9513 54.3474 30.1973 54.7706 30.6894V27.1228C54.7706 26.961 54.7913 26.8595 54.8325 26.8182C54.8738 26.7769 54.9736 26.7563 55.1319 26.7563H55.6894C55.8476 26.7563 55.9474 26.7769 55.9887 26.8182C56.03 26.8595 56.0507 26.961 56.0507 27.1228V34.3127C56.0507 34.4745 56.03 34.576 55.9887 34.6173C55.9474 34.6586 55.8476 34.6792 55.6894 34.6792H55.1319C54.9736 34.6792 54.8738 34.6586 54.8325 34.6173C54.7913 34.576 54.7706 34.4745 54.7706 34.3127V34.0805ZM53.6299 31.1074C53.2755 31.1074 52.9744 31.233 52.7267 31.4842C52.4755 31.732 52.3499 32.0331 52.3499 32.3875C52.3499 32.7419 52.4755 33.0447 52.7267 33.2959C52.9744 33.5471 53.2755 33.6727 53.6299 33.6727C53.9843 33.6727 54.2854 33.5471 54.5332 33.2959C54.7809 33.0447 54.9048 32.7368 54.9048 32.372C54.9048 32.0245 54.7809 31.7285 54.5332 31.4842C54.2785 31.233 53.9775 31.1074 53.6299 31.1074ZM58.5437 30.4674V34.3127C58.5437 34.4745 58.523 34.576 58.4817 34.6173C58.4404 34.6586 58.3406 34.6792 58.1824 34.6792H57.6249C57.4666 34.6792 57.3668 34.6586 57.3256 34.6173C57.2843 34.576 57.2636 34.4745 57.2636 34.3127V30.4674C57.2636 30.3057 57.2843 30.2042 57.3256 30.1629C57.3668 30.1216 57.4666 30.1009 57.6249 30.1009H58.1824C58.3406 30.1009 58.4404 30.1216 58.4817 30.1629C58.523 30.2042 58.5437 30.3057 58.5437 30.4674ZM57.9036 27.4015C58.117 27.4015 58.2976 27.4772 58.4456 27.6286C58.597 27.7766 58.6727 27.9572 58.6727 28.1705C58.6727 28.3839 58.597 28.5663 58.4456 28.7177C58.2976 28.8691 58.117 28.9448 57.9036 28.9448C57.6903 28.9448 57.5079 28.8691 57.3565 28.7177C57.2086 28.5663 57.1346 28.3822 57.1346 28.1654C57.1346 27.9555 57.2103 27.7766 57.3617 27.6286C57.5131 27.4772 57.6937 27.4015 57.9036 27.4015ZM61.0367 31.2055V34.3127C61.0367 34.4745 61.016 34.576 60.9747 34.6173C60.9334 34.6586 60.8337 34.6792 60.6754 34.6792H60.1179C59.9631 34.6792 59.8633 34.6586 59.8186 34.6173C59.7773 34.5725 59.7566 34.471 59.7566 34.3127V31.2055H59.6121C59.4573 31.2055 59.3575 31.1849 59.3127 31.1436C59.2714 31.0988 59.2508 30.999 59.2508 30.8442V30.4674C59.2508 30.3057 59.2714 30.2042 59.3127 30.1629C59.354 30.1216 59.4538 30.1009 59.6121 30.1009H59.7566V28.9086C59.7566 28.7469 59.7773 28.6454 59.8186 28.6041C59.8598 28.5628 59.9596 28.5422 60.1179 28.5422H60.6754C60.8302 28.5422 60.93 28.5628 60.9747 28.6041C61.016 28.6488 61.0367 28.7504 61.0367 28.9086V30.1009H61.5786C61.7404 30.1009 61.8419 30.1216 61.8832 30.1629C61.9244 30.2042 61.9451 30.3057 61.9451 30.4674V30.8442C61.9451 31.0025 61.9244 31.1023 61.8832 31.1436C61.8419 31.1849 61.7404 31.2055 61.5786 31.2055H61.0367ZM64.9491 29.9513C65.7749 29.9513 66.4339 30.2111 66.9259 30.7307C67.3457 31.1745 67.5556 31.7268 67.5556 32.3875C67.5556 33.1445 67.2872 33.7553 66.7505 34.2198C66.2756 34.6259 65.6648 34.8289 64.9181 34.8289C64.4398 34.8289 63.989 34.7222 63.5658 34.5089C63.146 34.299 62.826 33.9893 62.6058 33.5798C62.4165 33.2219 62.3219 32.8125 62.3219 32.3514C62.3219 31.6012 62.6006 30.9973 63.158 30.5397C63.4264 30.3195 63.7533 30.1594 64.1387 30.0597C64.4175 29.9874 64.6876 29.9513 64.9491 29.9513ZM64.9388 31.1074C64.5809 31.1074 64.2764 31.233 64.0252 31.4842C63.774 31.7389 63.6484 32.0468 63.6484 32.4081C63.6484 32.7488 63.774 33.0447 64.0252 33.2959C64.2764 33.5471 64.5809 33.6727 64.9388 33.6727C65.2966 33.6727 65.6012 33.5471 65.8524 33.2959C66.1035 33.0482 66.2291 32.7471 66.2291 32.3927C66.2291 32.0313 66.1035 31.7285 65.8524 31.4842C65.5943 31.233 65.2897 31.1074 64.9388 31.1074ZM69.8164 30.7926C70.133 30.2317 70.582 29.9513 71.1635 29.9513C71.5076 29.9513 71.6797 30.039 71.6797 30.2145C71.6797 30.2489 71.6728 30.3108 71.659 30.4003L71.5868 30.8545C71.5696 30.9818 71.5455 31.0696 71.5145 31.1178C71.4835 31.1625 71.4337 31.1849 71.3648 31.1849C71.3442 31.1849 71.3132 31.1797 71.2719 31.1694C71.0964 31.1246 70.9571 31.1023 70.8538 31.1023C70.5545 31.1023 70.305 31.2141 70.1054 31.4378C69.9127 31.6477 69.8164 31.9952 69.8164 32.4804V34.3127C69.8164 34.4745 69.7957 34.576 69.7544 34.6173C69.7132 34.6586 69.6116 34.6792 69.4499 34.6792H68.8976C68.7394 34.6792 68.6396 34.6586 68.5983 34.6173C68.557 34.576 68.5363 34.4745 68.5363 34.3127V30.4674C68.5363 30.3057 68.557 30.2042 68.5983 30.1629C68.6396 30.1216 68.7394 30.1009 68.8976 30.1009H69.4499C69.6116 30.1009 69.7132 30.1216 69.7544 30.1629C69.7957 30.2042 69.8164 30.3057 69.8164 30.4674V30.7926ZM73.832 27.5305L74.2398 27.577C74.3671 27.5942 74.4549 27.6183 74.503 27.6492C74.5512 27.6802 74.5753 27.7301 74.5753 27.7989C74.5753 27.8437 74.5443 27.9262 74.4824 28.0467L73.3469 30.1784C73.2918 30.285 73.2488 30.3521 73.2178 30.3797C73.1903 30.4072 73.1507 30.421 73.0991 30.421C73.0647 30.421 73.0028 30.4158 72.9133 30.4055L72.8049 30.39C72.6879 30.3728 72.6053 30.3487 72.5571 30.3177C72.509 30.2868 72.4849 30.2386 72.4849 30.1732C72.4849 30.1319 72.5072 30.0545 72.552 29.9409L73.4088 27.7886C73.4535 27.6716 73.4897 27.5976 73.5172 27.5667C73.5481 27.5322 73.5946 27.515 73.6565 27.515C73.6806 27.515 73.7391 27.5202 73.832 27.5305ZM78.369 30.7203L78.2141 30.9113C78.1384 30.9973 78.0868 31.0507 78.0593 31.0713C78.0318 31.0885 77.9956 31.0971 77.9509 31.0971C77.9165 31.0971 77.7943 31.0421 77.5844 30.9319C77.4984 30.8872 77.3831 30.8648 77.2386 30.8648C77.0941 30.8648 76.9737 30.9027 76.8773 30.9784C76.7844 31.0507 76.738 31.1436 76.738 31.2571C76.738 31.3604 76.7861 31.4464 76.8825 31.5152C76.9788 31.5806 77.1732 31.6649 77.4657 31.7681C77.8821 31.9126 78.1797 32.0468 78.3587 32.1707C78.6924 32.4116 78.8593 32.7505 78.8593 33.1875C78.8593 33.6899 78.6649 34.0959 78.2761 34.4056C77.9285 34.6878 77.4829 34.8289 76.9393 34.8289C76.4128 34.8289 75.9396 34.6706 75.5198 34.354C75.365 34.237 75.2876 34.1338 75.2876 34.0443C75.2876 33.9927 75.3357 33.9101 75.4321 33.7966L75.6282 33.5695C75.7349 33.4422 75.8227 33.3785 75.8915 33.3785C75.9396 33.3785 76.0412 33.4422 76.196 33.5695C76.4059 33.7415 76.6588 33.8276 76.9547 33.8276C77.1165 33.8276 77.2524 33.7794 77.3625 33.683C77.4761 33.5867 77.5328 33.4662 77.5328 33.3217C77.5328 33.191 77.4881 33.0895 77.3986 33.0172C77.3092 32.9415 77.1182 32.8503 76.8257 32.7436C76.3921 32.5854 76.0997 32.4529 75.9482 32.3462C75.6489 32.1294 75.4992 31.8128 75.4992 31.3965C75.4992 30.8975 75.6936 30.5104 76.0824 30.2351C76.368 30.0321 76.719 29.9306 77.1354 29.9306C77.4795 29.9306 77.7943 29.9874 78.0799 30.1009C78.369 30.2145 78.5135 30.3384 78.5135 30.4726C78.5135 30.5242 78.4653 30.6068 78.369 30.7203ZM87.701 28.1912V28.9138C87.701 29.1547 87.6476 29.2751 87.541 29.2751C87.5031 29.2751 87.3724 29.2011 87.1487 29.0532C86.8218 28.8364 86.4485 28.728 86.0287 28.728C85.2854 28.728 84.6849 29.005 84.2273 29.559C83.8557 30.0063 83.6699 30.5483 83.6699 31.1849C83.6699 31.935 83.9245 32.5355 84.4338 32.9862C84.8811 33.3854 85.3972 33.585 85.9822 33.585C86.2609 33.585 86.5121 33.5488 86.7358 33.4766C86.9629 33.4043 87.1917 33.2856 87.4223 33.1204C87.4739 33.0826 87.5169 33.0636 87.5513 33.0636C87.6511 33.0636 87.701 33.1858 87.701 33.4301V34.1424C87.701 34.2525 87.6958 34.3248 87.6855 34.3592C87.6786 34.3902 87.658 34.4211 87.6236 34.4521C87.6064 34.4693 87.5771 34.4865 87.5358 34.5037C87.0128 34.7274 86.4932 34.8392 85.977 34.8392C85.3233 34.8392 84.7108 34.6826 84.1395 34.3695C83.4995 34.0185 83.0126 33.5316 82.6788 32.9088C82.3967 32.3858 82.2556 31.8146 82.2556 31.1952C82.2556 30.5276 82.419 29.9083 82.7459 29.337C83.0866 28.7418 83.5597 28.2755 84.1654 27.9383C84.7297 27.6286 85.337 27.4737 85.9874 27.4737C86.5517 27.4737 87.0678 27.5907 87.5358 27.8247C87.615 27.866 87.6614 27.9039 87.6752 27.9383C87.6924 27.9727 87.701 28.057 87.701 28.1912ZM90.0598 30.6945C90.2318 30.4674 90.4022 30.3022 90.5708 30.199C90.8426 30.0338 91.154 29.9513 91.505 29.9513C92.0659 29.9513 92.5081 30.1388 92.8315 30.5139C92.9657 30.6687 93.0586 30.8425 93.1102 31.0352C93.1653 31.2244 93.1928 31.4791 93.1928 31.7991V34.3127C93.1928 34.4745 93.1722 34.576 93.1309 34.6173C93.0896 34.6586 92.9898 34.6792 92.8315 34.6792H92.2741C92.1192 34.6792 92.0194 34.6586 91.9747 34.6173C91.9334 34.5725 91.9128 34.471 91.9128 34.3127V32.1707C91.9128 31.8128 91.8715 31.5582 91.7889 31.4068C91.6513 31.1625 91.4001 31.0403 91.0353 31.0403C90.705 31.0403 90.4589 31.147 90.2972 31.3604C90.1389 31.5737 90.0598 31.8989 90.0598 32.3359V34.3127C90.0598 34.4745 90.0391 34.576 89.9979 34.6173C89.9566 34.6586 89.8551 34.6792 89.6933 34.6792H89.141C88.9828 34.6792 88.883 34.6586 88.8417 34.6173C88.8004 34.576 88.7797 34.4745 88.7797 34.3127V27.1228C88.7797 26.961 88.8004 26.8595 88.8417 26.8182C88.883 26.7769 88.9828 26.7563 89.141 26.7563H89.6933C89.8551 26.7563 89.9566 26.7769 89.9979 26.8182C90.0391 26.8595 90.0598 26.961 90.0598 27.1228V30.6945ZM96.7956 29.9513C97.6214 29.9513 98.2803 30.2111 98.7724 30.7307C99.1922 31.1745 99.4021 31.7268 99.4021 32.3875C99.4021 33.1445 99.1337 33.7553 98.5969 34.2198C98.1221 34.6259 97.5113 34.8289 96.7646 34.8289C96.2863 34.8289 95.8355 34.7222 95.4123 34.5089C94.9925 34.299 94.6725 33.9893 94.4522 33.5798C94.263 33.2219 94.1683 32.8125 94.1683 32.3514C94.1683 31.6012 94.4471 30.9973 95.0045 30.5397C95.2729 30.3195 95.5998 30.1594 95.9852 30.0597C96.2639 29.9874 96.534 29.9513 96.7956 29.9513ZM96.7852 31.1074C96.4274 31.1074 96.1228 31.233 95.8716 31.4842C95.6204 31.7389 95.4949 32.0468 95.4949 32.4081C95.4949 32.7488 95.6204 33.0447 95.8716 33.2959C96.1228 33.5471 96.4274 33.6727 96.7852 33.6727C97.1431 33.6727 97.4476 33.5471 97.6988 33.2959C97.95 33.0482 98.0756 32.7471 98.0756 32.3927C98.0756 32.0313 97.95 31.7285 97.6988 31.4842C97.4407 31.233 97.1362 31.1074 96.7852 31.1074ZM101.642 30.4674V34.3127C101.642 34.4745 101.622 34.576 101.58 34.6173C101.539 34.6586 101.439 34.6792 101.281 34.6792H100.723C100.565 34.6792 100.465 34.6586 100.424 34.6173C100.383 34.576 100.362 34.4745 100.362 34.3127V30.4674C100.362 30.3057 100.383 30.2042 100.424 30.1629C100.465 30.1216 100.565 30.1009 100.723 30.1009H101.281C101.439 30.1009 101.539 30.1216 101.58 30.1629C101.622 30.2042 101.642 30.3057 101.642 30.4674ZM101.002 27.4015C101.216 27.4015 101.396 27.4772 101.544 27.6286C101.696 27.7766 101.771 27.9572 101.771 28.1705C101.771 28.3839 101.696 28.5663 101.544 28.7177C101.396 28.8691 101.216 28.9448 101.002 28.9448C100.789 28.9448 100.606 28.8691 100.455 28.7177C100.307 28.5663 100.233 28.3822 100.233 28.1654C100.233 27.9555 100.309 27.7766 100.46 27.6286C100.612 27.4772 100.792 27.4015 101.002 27.4015ZM106.282 30.5087V30.9474C106.282 31.1917 106.232 31.3139 106.133 31.3139C106.102 31.3139 106.059 31.3019 106.004 31.2778C105.752 31.1642 105.508 31.1074 105.271 31.1074C104.844 31.1074 104.509 31.2434 104.264 31.5152C104.041 31.763 103.929 32.0554 103.929 32.3927C103.929 32.7574 104.056 33.0654 104.311 33.3166C104.552 33.554 104.865 33.6727 105.25 33.6727C105.522 33.6727 105.771 33.6211 105.999 33.5179C106.057 33.4903 106.102 33.4766 106.133 33.4766C106.232 33.4766 106.282 33.597 106.282 33.8379V34.2611C106.282 34.3747 106.277 34.4487 106.267 34.4831C106.26 34.514 106.241 34.5433 106.21 34.5708C106.134 34.6362 105.981 34.6947 105.751 34.7463C105.52 34.8014 105.305 34.8289 105.106 34.8289C104.321 34.8289 103.683 34.5502 103.191 33.9927C102.798 33.5488 102.602 33.0224 102.602 32.4133C102.602 31.6838 102.867 31.0765 103.397 30.5913C103.865 30.1646 104.44 29.9513 105.121 29.9513C105.331 29.9513 105.546 29.9771 105.766 30.0287C105.99 30.0803 106.138 30.1388 106.21 30.2042C106.258 30.2455 106.282 30.347 106.282 30.5087ZM108.332 32.5991C108.345 32.9879 108.445 33.2873 108.631 33.4972C108.83 33.7174 109.106 33.8276 109.457 33.8276C109.89 33.8276 110.226 33.6589 110.463 33.3217C110.508 33.2598 110.565 33.2288 110.634 33.2288C110.644 33.2288 110.706 33.2374 110.819 33.2546L111.284 33.332C111.411 33.3527 111.497 33.3785 111.542 33.4095C111.587 33.4404 111.609 33.4921 111.609 33.5643C111.609 33.6297 111.573 33.7209 111.501 33.8379C111.428 33.9549 111.342 34.0615 111.243 34.1579C110.785 34.6052 110.195 34.8289 109.472 34.8289C109.018 34.8289 108.6 34.7325 108.218 34.5398C107.76 34.3093 107.432 33.9618 107.232 33.4972C107.091 33.1703 107.02 32.8039 107.02 32.3978C107.02 31.923 107.124 31.486 107.33 31.0868C107.53 30.6945 107.826 30.4038 108.218 30.2145C108.576 30.039 108.975 29.9513 109.415 29.9513C110.09 29.9513 110.637 30.1422 111.057 30.5242C111.27 30.7203 111.44 30.9784 111.568 31.2984C111.695 31.6184 111.759 31.947 111.759 32.2843C111.759 32.4185 111.736 32.5045 111.692 32.5423C111.65 32.5802 111.551 32.5991 111.392 32.5991H108.332ZM110.541 31.7836C110.489 31.5531 110.408 31.3724 110.298 31.2416C110.088 30.9904 109.804 30.8648 109.446 30.8648C109.168 30.8648 108.934 30.9457 108.744 31.1074C108.559 31.2692 108.436 31.4946 108.378 31.7836H110.541Z" fill="#C8C8C8"/>
<path d="M10.6755 42.903H35.6755" stroke="#CACACA" stroke-linecap="round"/>
<path d="M19.1482 23.9949L21.6482 26.4949L27.6482 20.4949" stroke="#CACACA" stroke-width="1.7"/>
<path fill-rule="evenodd" clip-rule="evenodd" d="M14.5623 23.9593L18.8689 31.4186H27.4822L31.7888 23.9593L27.4822 16.5H18.8689L14.5623 23.9593ZM17.4255 14L11.6755 23.9593L17.4255 33.9186H28.9255L34.6755 23.9593L28.9255 14H17.4255Z" fill="#CACACA"/>
<path d="M17.4451 33.9186H28.9185V39.9186L23.1818 37.4186L17.4451 39.9186V33.9186Z" fill="#CACACA"/>
</svg>
