<svg width="82" height="82" viewBox="0 0 82 82" fill="none" xmlns="http://www.w3.org/2000/svg">
<rect x="1" y="1" width="80" height="80" rx="17.9052" stroke="#EBEBEB" stroke-width="0.8"/>
<mask id="mask0_504_34" style="mask-type:alpha" maskUnits="userSpaceOnUse" x="0" y="0" width="82" height="82">
<rect x="1" y="1" width="80" height="80" rx="18.56" fill="white" stroke="white" stroke-width="0.8"/>
</mask>
<g mask="url(#mask0_504_34)">
<path fill-rule="evenodd" clip-rule="evenodd" d="M55.2578 26.7422C47.3834 26.7422 41 33.1256 41 41H55.2578H69.5156C69.5156 33.1256 63.1322 26.7422 55.2578 26.7422Z" fill="url(#paint0_linear_504_34)"/>
<path fill-rule="evenodd" clip-rule="evenodd" d="M69.5156 41C69.5156 25.2513 56.7487 12.4844 41 12.4844C25.2513 12.4844 12.4844 25.2513 12.4844 41" fill="url(#paint1_linear_504_34)"/>
<path fill-rule="evenodd" clip-rule="evenodd" d="M69.5156 41C69.5156 56.7487 56.7487 69.5156 41 69.5156C25.2513 69.5156 12.4844 56.7487 12.4844 41" fill="url(#paint2_linear_504_34)"/>
<path fill-rule="evenodd" clip-rule="evenodd" d="M55.2578 41C55.2578 52.8116 45.6827 62.3867 33.8711 62.3867C22.0595 62.3867 12.4844 52.8116 12.4844 41" fill="url(#paint3_radial_504_34)"/>
<path fill-rule="evenodd" clip-rule="evenodd" d="M41 41C41 33.1256 47.3834 26.7422 55.2578 26.7422C63.1322 26.7422 69.5156 33.1256 69.5156 41" fill="url(#paint4_linear_504_34)"/>
<path fill-rule="evenodd" clip-rule="evenodd" d="M41 41C41 33.1256 47.3834 26.7422 55.2578 26.7422C63.1322 26.7422 69.5156 33.1256 69.5156 41" fill="#EE3780" fill-opacity="0.148224"/>
</g>
<defs>
<linearGradient id="paint0_linear_504_34" x1="38.5898" y1="33.5001" x2="45.0853" y2="50.3935" gradientUnits="userSpaceOnUse">
<stop stop-color="#FFB156"/>
<stop offset="1" stop-color="#F2002E"/>
</linearGradient>
<linearGradient id="paint1_linear_504_34" x1="-4.5815" y1="24.7063" x2="-2.94762" y2="49.6089" gradientUnits="userSpaceOnUse">
<stop stop-color="#3551C9"/>
<stop offset="1" stop-color="#C203C1"/>
</linearGradient>
<linearGradient id="paint2_linear_504_34" x1="21.2774" y1="60.759" x2="34.3597" y2="31.2935" gradientUnits="userSpaceOnUse">
<stop stop-color="#B7B6FF"/>
<stop offset="1" stop-color="#A322CD"/>
</linearGradient>
<radialGradient id="paint3_radial_504_34" cx="0" cy="0" r="1" gradientUnits="userSpaceOnUse" gradientTransform="translate(42.627 58.0293) rotate(-150.535) scale(34.6204 29.8749)">
<stop stop-color="#910BBD"/>
<stop offset="1" stop-color="#FA60C4"/>
</radialGradient>
<linearGradient id="paint4_linear_504_34" x1="54.5158" y1="25.5371" x2="66.0393" y2="43.2603" gradientUnits="userSpaceOnUse">
<stop stop-color="#FFB156"/>
<stop offset="1" stop-color="#F2002E"/>
</linearGradient>
</defs>
</svg>
