<svg width="80" height="80" viewBox="0 0 80 80" fill="none" xmlns="http://www.w3.org/2000/svg">
<rect width="80.0007" height="80" rx="18.5567" fill="url(#paint0_linear)"/>
<path fill-rule="evenodd" clip-rule="evenodd" d="M56.7053 28.7751C50.9565 24.5937 39.8958 18.0313 38.6341 17.3702C37.3725 16.7091 35.8345 16.7197 34.9803 16.7914C30.3503 17.1744 28.7878 22.924 31.0711 26.2378C31.7294 27.1935 32.4875 28.081 33.2456 28.9687C34.0094 29.8629 34.7733 30.7573 35.4355 31.7217C40.3706 38.9032 41.322 46.8021 39.5381 55.2004C38.8247 58.5602 39.7893 61.3494 43.2166 62.7171C46.4338 64.0052 49.1624 62.9265 50.7464 60.0689C50.8239 59.9291 50.9014 59.7892 50.9789 59.6494C54.218 53.8068 57.4724 47.9365 60.0905 41.8088C62.1631 36.9609 61.0612 31.939 56.7053 28.7751ZM19.4386 45.4431C21.3803 52.2147 26.2378 56.7651 30.287 55.604C34.338 54.4424 36.0461 48.0094 34.1043 41.2378C32.1621 34.4644 27.3051 29.9158 23.2541 31.0774C19.2049 32.2385 17.4964 38.6698 19.4386 45.4431Z" fill="white"/>
<defs>
<linearGradient id="paint0_linear" x1="120.001" y1="40" x2="40.001" y2="-40.0007" gradientUnits="userSpaceOnUse">
<stop stop-color="#3D4E81"/>
<stop offset="0.478729" stop-color="#5753C9"/>
<stop offset="1" stop-color="#6E7FF3"/>
</linearGradient>
</defs>
</svg>
