<svg width="86" height="28" viewBox="0 0 86 28" fill="none" xmlns="http://www.w3.org/2000/svg">
<path d="M69.9319 22.6365L74.939 27.7044H69.9319V22.6365ZM74.9946 7.26395V14.9291C74.9949 15.6195 75.2718 16.2805 75.7622 16.7617C76.2527 17.2429 76.9151 17.5035 77.5989 17.4842C78.982 17.4247 80.0695 16.2692 80.0573 14.8719V7.26395H85.12V27.7044H80.0573V22.1487C79.2679 22.436 78.436 22.5867 77.5968 22.5943C75.5712 22.6112 73.6226 21.8113 72.1836 20.3722C70.7445 18.9331 69.934 16.9738 69.9319 14.9291V7.26395H74.9946ZM47.6519 6.58823C50.0642 6.58823 52.3507 7.67759 53.8882 9.55927C55.4257 11.4409 56.054 13.9188 55.6017 16.3175H44.2304C44.8322 17.6859 46.1723 18.5684 47.6519 18.5706C48.2723 18.572 48.8832 18.4156 49.4284 18.1159L52.5646 21.2907C49.7595 23.4612 45.8881 23.5403 42.9987 21.4863C40.1092 19.4323 38.8685 15.7192 39.9329 12.3113C40.9973 8.90342 44.1212 6.58729 47.6519 6.58823ZM22.198 7.26395V22.6365H17.1909V7.26395H22.198ZM67.9291 7.26395V12.3881H65.3838C63.9781 12.3881 62.8386 13.5352 62.8386 14.9502V22.6365H57.7481V7.26395L59.9879 9.51859C61.4174 8.075 63.359 7.26372 65.3838 7.26395H67.9291ZM29.9367 7.26395L31.9617 10.5004L33.9868 7.26395H39.5558L34.7462 14.9502L39.5558 22.6365H33.9868L31.9617 19.4001L29.9367 22.6365H24.3677L29.1772 14.9502L24.3677 7.26395H29.9367ZM7.49265 2.02715C11.6764 2.02715 15.1493 5.39982 15.1878 9.62077C15.2045 11.6654 14.4121 13.6322 12.9864 15.0847C11.5607 16.5373 9.61961 17.3554 7.59391 17.3575H5.06261V22.4676H0V2.02715H7.49265ZM47.7963 10.9959C46.3696 10.9402 45.0359 11.711 44.3579 12.9829C44.3113 13.0689 44.2709 13.155 44.2304 13.2451H51.0734C50.4942 11.9241 49.223 11.0516 47.7963 10.9959ZM7.5372 7.13726H5.06261V12.2474H7.59391C8.2779 12.2471 8.93271 11.9676 9.40945 11.4726C9.88619 10.9775 10.1443 10.3089 10.1252 9.61872C10.0663 8.22261 8.92154 7.12497 7.5372 7.13726ZM22.198 0V5.06787L17.1909 0H22.198Z" fill="#FE3535"/>
</svg>
