<svg width="181" height="125" viewBox="0 0 181 125" fill="none" xmlns="http://www.w3.org/2000/svg">
<mask id="mask0" mask-type="alpha" maskUnits="userSpaceOnUse" x="0" y="0" width="181" height="125">
<rect width="181" height="125" fill="#FAFAFA"/>
</mask>
<g mask="url(#mask0)">
<circle cx="91.5" cy="63" r="48" fill="#D7CCEE"/>
</g>
<path d="M121.05 37C118.836 37 117 38.8258 117 41.0269V85.8978C117 88.0988 118.836 89.9247 121.05 89.9247H145.353C147.566 89.9247 149.403 88.0988 149.403 85.8978V41.0269C149.403 38.8258 147.566 37 145.353 37H121.05ZM121.05 40.4516H145.353C145.703 40.4516 145.931 40.6783 145.931 41.0269V42.7527H120.472V41.0269C120.472 40.6783 120.7 40.4516 121.05 40.4516ZM120.472 46.2043H145.931V78.4193H120.472V46.2043ZM132.984 50.8243C132.755 50.8585 132.532 50.9385 132.333 51.0581L124.233 55.6602C123.704 55.9544 123.354 56.5368 123.347 57.1343V66.3386C123.354 66.9363 123.704 67.5186 124.233 67.8128L132.333 72.4149C132.559 72.5462 132.814 72.6268 133.075 72.6486C133.42 72.6699 133.771 72.5875 134.069 72.4149L142.17 67.8128C142.699 67.5186 143.049 66.9363 143.056 66.3386V57.1343C143.049 56.5368 142.699 55.9544 142.17 55.6602L134.069 51.0581C133.746 50.8677 133.359 50.7843 132.984 50.8243ZM133.201 54.5097L137.812 57.1164L133.201 59.741L128.591 57.1164L133.201 54.5097ZM126.837 60.1005L131.466 62.7432V67.9746L126.837 65.3679V60.1005ZM139.566 60.1005V65.3679L134.937 67.9746V62.7432L139.566 60.1005ZM120.472 81.8709H145.931V85.8978C145.931 86.2463 145.703 86.4731 145.353 86.4731H121.05C120.7 86.4731 120.472 86.2463 120.472 85.8978V81.8709ZM133.201 82.4462C132.243 82.4462 131.466 83.2188 131.466 84.172C131.466 85.1251 132.243 85.8978 133.201 85.8978C134.16 85.8978 134.937 85.1251 134.937 84.172C134.937 83.2188 134.16 82.4462 133.201 82.4462Z" fill="#9177C9"/>
</svg>
