<svg width="69" height="12" viewBox="0 0 69 12" fill="none" xmlns="http://www.w3.org/2000/svg">
<path fill-rule="evenodd" clip-rule="evenodd" d="M5.5128 1.61445C5.63613 1.26602 6.12888 1.26602 6.25221 1.61445L7.2607 4.46365C7.31613 4.62027 7.46425 4.72497 7.6304 4.72497H10.6742C11.0419 4.72497 11.2074 5.18549 10.9239 5.41959L8.71308 7.2447C8.6004 7.33772 8.54878 7.48568 8.57913 7.62861L9.22713 10.6798C9.29799 11.0135 8.93853 11.2723 8.64456 11.0993L6.08144 9.59066C5.95866 9.51839 5.80635 9.51839 5.68357 9.59066L3.12045 11.0993C2.82648 11.2723 2.46702 11.0135 2.53789 10.6798L3.18588 7.62861C3.21623 7.48568 3.16461 7.33772 3.05193 7.2447L0.841156 5.41959C0.557593 5.18549 0.723127 4.72497 1.09083 4.72497H4.13461C4.30076 4.72497 4.44888 4.62027 4.50431 4.46364L5.5128 1.61445Z" fill="#FE8105"/>
<path fill-rule="evenodd" clip-rule="evenodd" d="M19.6315 1.61445C19.7548 1.26602 20.2475 1.26602 20.3709 1.61445L21.3793 4.46365C21.4348 4.62027 21.5829 4.72497 21.7491 4.72497H24.7928C25.1605 4.72497 25.3261 5.18549 25.0425 5.41959L22.8317 7.2447C22.7191 7.33772 22.6674 7.48568 22.6978 7.62861L23.3458 10.6798C23.4166 11.0135 23.0572 11.2723 22.7632 11.0993L20.2001 9.59066C20.0773 9.51839 19.925 9.51839 19.8022 9.59066L17.2391 11.0993C16.9451 11.2723 16.5857 11.0135 16.6565 10.6798L17.3045 7.62861C17.3349 7.48568 17.2833 7.33772 17.1706 7.2447L14.9598 5.41959C14.6762 5.18549 14.8418 4.72497 15.2095 4.72497H18.2533C18.4194 4.72497 18.5675 4.62027 18.623 4.46364L19.6315 1.61445Z" fill="#FE8105"/>
<path fill-rule="evenodd" clip-rule="evenodd" d="M33.7501 1.61445C33.8734 1.26602 34.3662 1.26602 34.4895 1.61445L35.498 4.46365C35.5534 4.62027 35.7016 4.72497 35.8677 4.72497H38.9115C39.2792 4.72497 39.4447 5.18549 39.1612 5.41959L36.9504 7.2447C36.8377 7.33772 36.7861 7.48568 36.8164 7.62861L37.4644 10.6798C37.5353 11.0135 37.1758 11.2723 36.8819 11.0993L34.3187 9.59066C34.196 9.51839 34.0437 9.51839 33.9209 9.59066L31.3578 11.0993C31.0638 11.2723 30.7043 11.0135 30.7752 10.6798L31.4232 7.62861C31.4535 7.48568 31.4019 7.33772 31.2892 7.2447L29.0785 5.41959C28.7949 5.18549 28.9604 4.72497 29.3281 4.72497H32.3719C32.5381 4.72497 32.6862 4.62027 32.7416 4.46364L33.7501 1.61445Z" fill="#FE8105"/>
<path fill-rule="evenodd" clip-rule="evenodd" d="M47.8688 1.61445C47.9921 1.26602 48.4848 1.26602 48.6082 1.61445L49.6167 4.46365C49.6721 4.62027 49.8202 4.72497 49.9864 4.72497H53.0301C53.3978 4.72497 53.5634 5.18549 53.2798 5.41959L51.069 7.2447C50.9564 7.33772 50.9047 7.48568 50.9351 7.62861L51.5831 10.6798C51.6539 11.0135 51.2945 11.2723 51.0005 11.0993L48.4374 9.59066C48.3146 9.51839 48.1623 9.51839 48.0395 9.59066L45.4764 11.0993C45.1824 11.2723 44.823 11.0135 44.8938 10.6798L45.5418 7.62861C45.5722 7.48568 45.5206 7.33772 45.4079 7.2447L43.1971 5.41959C42.9136 5.18549 43.0791 4.72497 43.4468 4.72497H46.4906C46.6567 4.72497 46.8048 4.62027 46.8603 4.46364L47.8688 1.61445Z" fill="#FE8105"/>
<path fill-rule="evenodd" clip-rule="evenodd" d="M61.9872 1.61445C62.1105 1.26602 62.6032 1.26602 62.7266 1.61445L63.7351 4.46365C63.7905 4.62027 63.9386 4.72497 64.1048 4.72497H67.1485C67.5162 4.72497 67.6818 5.18549 67.3982 5.41959L65.1874 7.2447C65.0748 7.33772 65.0231 7.48568 65.0535 7.62861L65.7015 10.6798C65.7724 11.0135 65.4129 11.2723 65.1189 11.0993L62.5558 9.59066C62.433 9.51839 62.2807 9.51839 62.1579 9.59066L59.5948 11.0993C59.3008 11.2723 58.9414 11.0135 59.0123 10.6798L59.6602 7.62861C59.6906 7.48568 59.639 7.33772 59.5263 7.2447L57.3155 5.41959C57.032 5.18549 57.1975 4.72497 57.5652 4.72497H60.609C60.7751 4.72497 60.9232 4.62027 60.9787 4.46364L61.9872 1.61445Z" fill="#FE8105"/>
</svg>
